<?xml version="1.0" standalone="no"?>
<!DOCTYPE svg PUBLIC "-//W3C//DTD SVG 1.1//EN" "http://www.w3.org/Graphics/SVG/1.1/DTD/svg11.dtd">
<svg xmlns="http://www.w3.org/2000/svg">
  <defs>
    <font id="Outfit" horiz-adv-x="564">
      <font-face font-family="Outfit Thin Light" units-per-em="1000" panose-1="0 0 0 0 0 0 0 0 0 0" ascent="1000" descent="-260" alphabetic="0" />
      <glyph unicode=" " glyph-name="gid158" horiz-adv-x="215" />
      <glyph unicode="!" glyph-name="gid165" horiz-adv-x="261" d="M101,209L90,708h77L156,209H101ZM128-10Q103-10 87,7T71,47q0,25 16,41.5T128,105q24,0 40-16.5T184,47q0-23-16-40T128-10Z" />
      <glyph unicode="&quot;" glyph-name="gid195" horiz-adv-x="374" d="M236,486L219,708h79L281,486H236ZM94,486L76,708h80L138,486H94Z" />
      <glyph unicode="#" glyph-name="gid172" horiz-adv-x="638" d="M340,0L442,688h61L401,0H340ZM54,219v57H554V219H54ZM128,0L230,688h61L189,0H128ZM83,426v57H584V426H83Z" />
      <glyph unicode="$" glyph-name="gid209" horiz-adv-x="592" d="M296-10q-75,0-131.5,30.5T65,106l50,50q35-50 80-75T299,56q65,0 105,30.5T444,172q0,41-18,67.5t-48.5,43T311,312t-72.5,27.5T172,376t-48.5,56T105,519q0,56 26.5,96t73,61.5T310,698q62,0 113.5-26T509,602l-50-50q-31,39-68,60t-83,21q-60,0-96-28.5T176,524q0-39 18.5-63t49-40t67-28.5t73-27.5t67-38t49-58.5T518,178q0-89-60-138.5T296-10Zm-11-90V788h53V-100H285Z" />
      <glyph unicode="%" glyph-name="gid226" horiz-adv-x="662" d="M74,0L516,688h72L147,0H74ZM463-10q-38,0-70,18.5T342,59t-19,71t19,70t50.5,49.5T463,268t70.5-18.5T584,200t19-70T584.5,59T534,8.5T463-10Zm-1,57q36,0 59,23t23,60q0,36-24,58.5T462,211q-33,0-56-22.5T383,130q0-37 23-60t56-23ZM199,420q-38,0-70,18.5t-51,50T59,559t19,70.5t50.5,50T199,698t70.5-18.5t50.5-50T339,559t-18.5-70.5t-50.5-50T199,420Zm-1,57q36,0 58.5,23T279,560q0,36-23.5,58.5T198,641q-33,0-56-22.5T119,560q0-37 23-60t56-23Z" />
      <glyph unicode="&amp;" glyph-name="gid198" horiz-adv-x="648" d="M546,0L214,349q-40,43-59.5,82.5T135,516q0,53 24,94t67,65t99,24q39,0 72-12.5T456,653t44-49l-51-46q-24,34-54,53t-70,19q-52,0-85.5-31.5T206,516q0-37 16-65.5T273,385L635,0H546ZM288-10q-66,0-116,26.5t-78.5,73T65,195q0,64 34.5,116T195,392l35-44q-43-21-68.5-60.5T136,197q0-42 20-73.5t55-49T291,57q53,0 94,24t62,61l46-52q-20-30-51.5-52.5T371,2.5T288-10Z" />
      <glyph unicode="&apos;" glyph-name="gid196" horiz-adv-x="232" d="M94,486L76,708h80L138,486H94Z" />
      <glyph unicode="(" glyph-name="gid179" horiz-adv-x="306" d="M230-113Q173-67 133.5-0.5T73,145.5T52,309q0,85 21,164t60.5,146T230,732l41-38q-76-64-116-164T115,309q0-120 40-220T271-75l-41-38Z" />
      <glyph unicode=")" glyph-name="gid180" horiz-adv-x="306" d="M77-113L35-75Q112-11 152,89t40,220q0,121-40,221T35,694l42,38q57-46 96.5-113t60-146T254,309q0-84-20.5-163.5t-60-146T77-113Z" />
      <glyph unicode="*" glyph-name="gid171" horiz-adv-x="488" d="M234,358L223,517L87,433L56,492l150,59L83,653l47,47L234,579l60,147l60-30L268,561l162-10l-10-66L262,523l39-155l-67-10Z" />
      <glyph unicode="+" glyph-name="gid214" horiz-adv-x="537" d="M64,302v63H473V302H64ZM236,548h65V120H236V548Z" />
      <glyph unicode="," glyph-name="gid161" horiz-adv-x="274" d="M81-103L138,8l25,6q-4-9-11-15.5T135-8Q116-8 100.5,7.5T85,46q0,24 17,41.5T143,105q23,0 40.5-17.5T201,46q0-10-3.5-23.5T183-13L123-126L81-103Z" />
      <glyph unicode="-" glyph-name="gid175" horiz-adv-x="460" d="M71,220v67H390V220H71Z" />
      <glyph unicode="." glyph-name="gid160" horiz-adv-x="289" d="M145-10q-25,0-41,17T88,48t16,40.5T145,105q24,0 40-16.5T201,48T185,7T145-10Z" />
      <glyph unicode="/" glyph-name="gid173" horiz-adv-x="380" d="M20-40L294,725h66L86-40H20Z" />
      <glyph unicode="0" glyph-name="gid130" horiz-adv-x="657" d="M330-10q-76,0-139,43.5T90.5,157T53,345q0,109 37,187.5t99.5,122T328,698q77,0 139.5-43T567,532.5T604,344q0-108-37-188T468,33T330-10Zm-2,69q59,0 104.5,33.5t71.5,97T530,345q0,91-26,154.5T432.5,596T328,629q-58,0-103.5-33T153,500T127,345t26-155.5t71.5-97T328,59Z" />
      <glyph unicode="1" glyph-name="gid131" horiz-adv-x="338" d="M181,0V688h72V0H181ZM36,623v65H243V623H36Z" />
      <glyph unicode="2" glyph-name="gid132" horiz-adv-x="540" d="M38,45L293,311q44,47 68.5,79t34,58.5T405,504q0,59-37,92.5T270,630q-56,0-98-26.5T97,524L46,569q40,63 96,96t130,33q62,0 108.5-24t72-68T478,503q0-41-11-74.5t-38.5-70T351,270L135,48L38,45ZM38,0V45L98,66H495V0H38Z" />
      <glyph unicode="3" glyph-name="gid133" horiz-adv-x="535" d="M248-10q-66,0-120.5,26T36,91l49,49q25-38 68-59.5T247,59q50,0 86.5,19t57,53.5T411,212q0,47-20.5,81t-58,53T243,365q-17,0-34.5-2T174,356l28,41q17,9 37,14t44,5q57,0 103-26.5t72.5-73T485,209q0-65-30-114T371.5,18T248-10ZM174,356v45L392,646l85-3L255,395l-81-39ZM66,623v65H477V643l-63-20H66Z" />
      <glyph unicode="4" glyph-name="gid134" horiz-adv-x="597" d="M38,228L295,688h82L116,228H38Zm0-46v46l31,20H559V182H38ZM385,0V459h72V0H385Z" />
      <glyph unicode="5" glyph-name="gid135" horiz-adv-x="538" d="M248-10q-68,0-122,26T35,91l49,49q25-38 67.5-59.5T247,59q50,0 88,19.5t59.5,55T416,217q0,49-21,84.5T338,356t-81,19q-43,0-78.5-11.5T114,327l-2,48q18,20 41,33t51.5,20t63.5,7q69,0 119-29.5T463.5,326T490,213q0-65-31-115T373.5,19T248-10ZM114,327L75,367l30,321h67L139,360l-25-33Zm9,296l-18,65H459V623H123Z" />
      <glyph unicode="6" glyph-name="gid136" horiz-adv-x="565" d="M282-10q-66,0-119.5,31.5T77.5,106T46,224q0,88 61,172L323,688h86L195,405l-26-10q14,18 32.5,30.5T244,445t55,7q61,0 111-29.5T490,342t30-116T488,107.5T402,22T282-10Zm1,68q45,0 82.5,22.5t59.5,61T447,226q0,47-22,85t-59.5,60.5T283,394q-46,0-83.5-22.5t-59-60T119,226q0-47 21.5-85.5t59-60.5T283,58Z" />
      <glyph unicode="7" glyph-name="gid137" horiz-adv-x="528" d="M155,0L419,647l71-5L231,0H155ZM36,623v65H490V642l-32-19H36Z" />
      <glyph unicode="8" glyph-name="gid138" horiz-adv-x="552" d="M276-10q-67,0-118.5,26T77,87.5T48,191q0,46 18.5,84.5t52.5,66T198,379l8-21q-40,11-68,35T95,450.5T80,521q0,53 25.5,92.5t70,62.5T276,699q57,0 101.5-23T447,613.5T472,521q0-37-14.5-70.5T415,393t-69-35l8,21q46-10 79.5-37.5t52-66T504,191q0-58-28.5-103.5T395.5,16T276-10Zm0,66q46,0 81.5,18T413,124.5T433,198q0,42-20,73.5t-55.5,50T276,340q-45,0-80.5-18.5t-56-50T119,198q0-41 20.5-73.5T195,74t81-18Zm0,341q56,0 91.5,33.5T403,517t-35.5,86T276,636q-55,0-91-33t-36-86t36-86.5T276,397Z" />
      <glyph unicode="9" glyph-name="gid139" horiz-adv-x="565" d="M156,0L371,284l25,10q-14-18-32-31t-42-20t-55-7q-61,0-111,30T75.5,347T45,462q0,66 32.5,119.5t86,85T283,698q67,0 120.5-31t85-84T520,465q0-88-61-172L242,0H156ZM283,295q46,0 83,22t58.5,60.5T446,462q0,48-21.5,86T366,608.5T283,631t-83-22.5t-59-61T119,462q0-46 22-84t59.5-60.5T283,295Z" />
      <glyph unicode=":" glyph-name="gid162" horiz-adv-x="270" d="M135-10Q110-10 94.5,7T79,47q0,25 15.5,41.5T135,105q24,0 40.5-16.5T192,47q0-23-16.5-40T135-10Zm0,315q-25,0-40.5,17T79,362q0,25 15.5,41T135,419q24,0 40.5-16T192,362q0-23-16.5-40T135,305Z" />
      <glyph unicode=";" glyph-name="gid163" horiz-adv-x="269" d="M76-103L133,8l26,6q-4-9-11-15.5T130-8Q111-8 95.5,7.5T80,46q0,24 17.5,41.5T139,105q23,0 40-17.5T196,46q0-10-3.5-23.5T178-13L119-126L76-103Zm59,408q-24,0-40,17T79,362q0,25 16,41t40,16q25,0 41-16t16-41q0-23-16-40t-41-17Z" />
      <glyph unicode="&lt;" glyph-name="gid220" horiz-adv-x="537" d="M473,125L64,310v50L473,545V475L120,321v28L473,195V125Z" />
      <glyph unicode="=" glyph-name="gid218" horiz-adv-x="537" d="M64,417v63H473V417H64Zm0-230v63H473V187H64Z" />
      <glyph unicode="&gt;" glyph-name="gid219" horiz-adv-x="537" d="M64,475v70L473,360V310L64,125v70L417,349V321L64,475Z" />
      <glyph unicode="?" glyph-name="gid167" horiz-adv-x="505" d="M224,209l-1,187h25q38,1 66.5,18.5T359,461t16,65q0,35-15.5,63T315,633t-69,16q-52,0-88.5-25T99,558L47,602q28,53 80.5,84.5T249,718q60,0 104.5-24T423,627.5T448,530q0-52-23-94t-65-69t-98-34l29,32l-7-156H224ZM253-10q-24,0-40,17T197,47q0,25 16,41.5T253,105q25,0 41-16.5T310,47q0-23-16-40T253-10Z" />
      <glyph unicode="@" glyph-name="gid197" horiz-adv-x="764" d="M385-87q-67,0-125.5,24.5T157,6T88.5,109T64,236q0,70 25,129t70,103t104.5,68.5T391,561q91,0 160.5-41t109-113.5T700,239q0-42-8.5-75.5T665,100l-61,6q14,19 22,38t11.5,43t3.5,57q0,81-30.5,139.5t-87,90T392,505q-77,0-137-33.5t-94.5-94T126,235q0-79 33.5-139T251,3T383-30q56,0 99.5,15T559,30l41-40q-44-38-98-57.5T385-87ZM367,92q-38,0-70,19t-50.5,52T228,236q0,42 18.5,75T297,363.5T367,383q50,0 81.5-25.5T480,290V184q0-41-31-66.5T367,92Zm3,50q41,0 65,26.5T459,237q0,44-24,69.5T371,332q-38,0-63.5-26T282,237q0-42 25.5-68.5T370,142Zm112-42v49H665V100H482Zm-21,0v72l10,69l-10,67v69h54V100H461Z" />
      <glyph unicode="A" glyph-name="gid1" horiz-adv-x="690" d="M37,0L319,688h55L653,0H574L331,608h29L115,0H37ZM166,179v65H526V179H166Z" />
      <glyph unicode="B" glyph-name="gid10" horiz-adv-x="625" d="M135,0V65H353q68,0 107,38t39,95q0,37-17,67t-48.5,47.5T359,330H135v64H348q56,0 88.5,30T469,509t-35,85t-94,30H135v64H342q64,0 109-23t68-62t23-88q0-58-30-99.5T424,352l7,24q67-21 104.5-69T573,193q0-55-26.5-98.5t-77-69T348,0H135ZM88,0V688h73V0H88Z" />
      <glyph unicode="C" glyph-name="gid11" horiz-adv-x="693" d="M400-10q-74,0-137.5,27T152,93T79.5,206.5T54,345T79.5,483.5t72,112.5T261,671t136,27q79,0 141.5-28T648,593l-50-50q-36,40-87,62.5T397,628q-58,0-106.5-21t-85-59.5t-56-90T130,345t20-113t56-90.5T291,82T398,61q66,0 117.5,23T603,147l50-51Q607,47 543,18.5T400-10Z" />
      <glyph unicode="D" glyph-name="gid13" horiz-adv-x="739" d="M133,0V68H335q81,0 143,35.5t97,98T610,345T575,488t-97,97.5T335,621H135v67H337q75,0 138.5-25.5t111-72t73.5-109T686,344q0-73-26-136T587,98.5T476.5,26T339,0H133ZM88,0V688h73V0H88Z" />
      <glyph unicode="E" glyph-name="gid15" horiz-adv-x="589" d="M88,0V688h73V0H88Zm48,0V67H541V0H136Zm0,320v65H509V320H136Zm0,301v67H535V621H136Z" />
      <glyph unicode="F" glyph-name="gid20" horiz-adv-x="567" d="M88,0V688h73V0H88Zm48,311v67H505V311H136Zm0,310v67H522V621H136Z" />
      <glyph unicode="G" glyph-name="gid21" horiz-adv-x="773" d="M399-9Q326-9 263,18T153,93T80,205.5T54,345T80.5,484T154,596.5T265,672t139,27q83,0 152.5-33T671,573l-51-51q-36,51-92,78.5T404,628q-81,0-143-36.5T164.5,491T130,344q0-82 34.5-146t95-100.5T397,61T530.5,92t87,90T649,324l42-31H390v67H725V349q0-116-41.5-196T569,32T399-9Z" />
      <glyph unicode="H" glyph-name="gid22" horiz-adv-x="700" d="M88,0V688h73V0H88ZM539,0V688h73V0H539ZM136,322v67H559V322H136Z" />
      <glyph unicode="I" glyph-name="gid23" horiz-adv-x="249" d="M88,0V688h73V0H88Z" />
      <glyph unicode="J" glyph-name="gid28" horiz-adv-x="495" d="M212-10q-58,0-101.5,22.5T36,74l52,48q22-30 52-45.5T210,61q36,0 66,15.5T324,125t18,83V688h74V209q0-69-27.5-118t-74-75T212-10Z" />
      <glyph unicode="K" glyph-name="gid29" horiz-adv-x="659" d="M524,0L148,359L516,688h98L222,339v42L624,0H524ZM88,0V688h73V0H88Z" />
      <glyph unicode="L" glyph-name="gid30" horiz-adv-x="554" d="M88,0V688h73V0H88Zm48,0V67H515V0H136Z" />
      <glyph unicode="M" glyph-name="gid31" horiz-adv-x="836" d="M88,0V688h52L437,201H400L697,688h52V0H675V560l17-4L444,149H392L144,556l17,4V0H88Z" />
      <glyph unicode="N" glyph-name="gid32" horiz-adv-x="703" d="M88,0V688h52l21-87V0H88ZM564,0L129,590l11,98L574,98L564,0Zm0,0L542,83V688h74V0H564Z" />
      <glyph unicode="O" glyph-name="gid34" horiz-adv-x="794" d="M398-10q-73,0-135.5,27.5T153,93.5t-73.5,113T53,345q0,75 26,139t73,112t109,75t135,27t135.5-27T641,596t73-112.5T740,344q0-74-26-138.5T641.5,93T533,17.5T398-10Zm-2,71q78,0 138.5,37t95,101T664,345q0,61-20,112.5t-56,90T503.5,607T396,628q-77,0-137.5-36.5T163.5,491T129,345q0-61 20-113t56-90.5T290,82T396,61Z" />
      <glyph unicode="P" glyph-name="gid42" horiz-adv-x="608" d="M135,276v65H338q42,0 75.5,17t53,48.5T486,482t-19.5,75.5t-53,49T338,624H135v64H343q62,0 111-25.5T531.5,591T560,482q0-62-28.5-108.5t-77.5-72T343,276H135ZM88,0V688h73V0H88Z" />
      <glyph unicode="Q" glyph-name="gid44" horiz-adv-x="814" d="M399-10q-73,0-136,27.5t-110,76t-73,113T54,345q0,75 26,139t72.5,112t109,75T397,698t135.5-27t109-75t73-112.5T741,344q0-74-26-138.5T642,93T533,17.5T399-10ZM743-49L408,285l47,47L790-2L743-49ZM397,61q78,0 138,37t95,101t35,146q0,61-20,112.5t-56,90T504,607T397,628q-78,0-138-36.5T164.5,491T130,345q0-61 20-113t55.5-90.5T290,82T397,61Z" />
      <glyph unicode="R" glyph-name="gid45" horiz-adv-x="633" d="M135,308v62H335q68,0 104,34.5T475,497q0,56-36,91.5T335,624H135v64H335q67,0 115-24.5T523.5,596T549,498q0-57-25.5-100T450,331.5T335,308H135ZM88,0V688h73V0H88ZM504,0L246,318l71,23L598,0H504Z" />
      <glyph unicode="S" glyph-name="gid46" horiz-adv-x="554" d="M278-10q-80,0-138,30.5T38,106l51,50q35-49 81.5-73T281,59q66,0 107,30t41,83q0,41-19,67.5t-49.5,43T293,312t-73.5,27.5T152,376t-49.5,56T84,519q0,56 27,96t74,61.5T292,698q67,0 119.5-26T499,602l-50-50q-32,38-70,58t-89,20q-60,0-96-28t-36-78q0-39 18.5-63T226,421t67.5-28.5T367,365t67.5-38T484,268.5T503,178q0-89-60.5-138.5T278-10Z" />
      <glyph unicode="T" glyph-name="gid47" horiz-adv-x="632" d="M279,0V669h74V0H279ZM37,621v67H595V621H37Z" />
      <glyph unicode="U" glyph-name="gid48" horiz-adv-x="676" d="M339-10q-75,0-133.5,33.5t-92.5,92T79,247V688h74V251q0-58 24-101t66.5-66T339,61t94.5,23t66,65.5T524,250V688h73V246q0-73-33.5-131t-92-91.5T339-10Z" />
      <glyph unicode="V" glyph-name="gid53" horiz-adv-x="679" d="M311,0L37,688h80L354,81H325L564,688h78L366,0H311Z" />
      <glyph unicode="W" glyph-name="gid54" horiz-adv-x="979" d="M261,0L39,688h73L299,96H277L462,688h55L703,96H680L867,688h74L718,0H664L479,591h21L315,0H261Z" />
      <glyph unicode="X" glyph-name="gid55" horiz-adv-x="685" d="M561,0L333,324H320L48,688h88L360,385h13L648,0H561ZM37,0L308,363l48-44L120,0H37ZM379,335l-48,45L554,688h83L379,335Z" />
      <glyph unicode="Y" glyph-name="gid56" horiz-adv-x="659" d="M308,284L35,688h86L348,349H312L541,688h83L349,284H308ZM293,0V337h74V0H293Z" />
      <glyph unicode="Z" glyph-name="gid58" horiz-adv-x="577" d="M43,49L445,639h87L130,49H43ZM43,0V49l63,18H524V0H43ZM62,621v67H532V639l-64-18H62Z" />
      <glyph unicode="[" glyph-name="gid183" horiz-adv-x="335" d="M84-96V708h61V-96H84Zm30,0v56H295V-96H114Zm0,748v56H295V652H114Z" />
      <glyph unicode="\" glyph-name="gid174" horiz-adv-x="380" d="M294-40L20,725H86L360-40H294Z" />
      <glyph unicode="]" glyph-name="gid184" horiz-adv-x="335" d="M190-96V708h61V-96H190ZM40-96v56H221V-96H40Zm0,748v56H221V652H40Z" />
      <glyph unicode="^" glyph-name="gid224" horiz-adv-x="455" d="M333,457L215,668h26L122,457H60L203,708h48L395,457H333Z" />
      <glyph unicode="_" glyph-name="gid178" horiz-adv-x="529" d="M40-113v60H489v-60H40Z" />
      <glyph unicode="`" glyph-name="gid239" horiz-adv-x="269" d="M197,538L40,672l56,56L229,570l-32-32Z" />
      <glyph unicode="a" glyph-name="gid59" horiz-adv-x="585" d="M275-10q-67,0-120,32.5T71.5,110T41,234q0,70 30.5,125.5t83.5,88T274,480q54,0 96.5-21.5t69-60T472,309V162q-6-51-32.5-90t-69-60.5T275-10Zm11,67q73,0 117.5,49T448,235q0,53-20.5,93.5t-57,63T285,414q-50,0-88.5-23t-61-63.5T113,235t22.5-92T197,80t89-23ZM444,0V126l14,116L444,355V470h70V0H444Z" />
      <glyph unicode="b" glyph-name="gid67" horiz-adv-x="585" d="M314-10q-54,0-97,22T146.5,72.5T113,162V309q6,52 34,90.5T218.5,459T314,480q65,0 117-32.5t82.5-88T544,234q0-69-30-124T431.5,22.5T314-10ZM71,0V708h70V355L127,242l14-116V0H71ZM302,57q50,0 88,22.5t59.5,63T471,235q0,53-21.5,93T390,391t-87,23t-86.5-23T158,328t-21-93q0-52 21-92.5t58-63T302,57Z" />
      <glyph unicode="c" glyph-name="gid68" horiz-adv-x="491" d="M285-10q-69,0-124.5,32.5T72.5,111T40,236T72.5,360.5t88,87.5T285,480q53,0 99-20t78-56l-46-47q-24,27-58,41.5T285,413q-50,0-89-23t-61-62.5T113,236q0-51 22-91.5T196,81t89-23q40,0 74,14.5T417,114l47-47q-33-37-79.5-57T285-10Z" />
      <glyph unicode="d" glyph-name="gid70" horiz-adv-x="585" d="M271-10q-65,0-117,32T71.5,109.5T41,234q0,70 30.5,125.5t82.5,88T271,480q53,0 96-21t71.5-59.5T472,309V162q-6-51-33.5-89.5T368,12T271-10Zm12,67q49,0 86,22.5t58,63T448,235q0,53-21.5,93T368,391t-86,23t-87-23t-59.5-63.5T114,235t21.5-92.5t60-63T283,57ZM514,0H444V126l14,116L444,355V708h70V0Z" />
      <glyph unicode="e" glyph-name="gid72" horiz-adv-x="538" d="M288-10q-71,0-127,32T72.5,110T40,236q0,69 32,124.5T159,448t123,32q64,0 113.5-29t78-80.5T502,252q0-8-1-18.5T497,209H90v60H459l-25-22q1,52-17.5,89.5t-53,58T280,415q-51,0-89-22t-59.5-61.5T110,238t22.5-95t63-64T289,56q43,0 79,15.5T429,118l45-46q-33-39-81.5-60.5T288-10Z" />
      <glyph unicode="f" glyph-name="gid77" horiz-adv-x="395" d="M140,0V550q0,49 21.5,87t60,59.5T309,718q38,0 67-13.5T429,667l-46-46q-16,16-33.5,23.5T309,652q-47,0-72.5-27.5T211,548V0H140ZM22,407v63H368V407H22Z" />
      <glyph unicode="g" glyph-name="gid78" horiz-adv-x="582" d="M265-208q-71,0-126.5,26.5T49-107L95-61q28-38 71-59t101-21q80,0 127.5,43T442,19V136l14,107L442,349V470h70V19q0-68-31-119t-86.5-79.5T265-208ZM270,5Q205,5 153,36T71,121T41,243T70.5,364.5T152,449t117,31q55,0 98.5-21t70-59.5T470,309V176q-6-51-33-89.5t-70-60T270,5Zm13,67q49,0 85.5,21t57,59.5T446,243q0,51-20.5,89T368,392t-86,22t-87.5-22t-60-60T113,243q0-50 22-89t60-60.5T283,72Z" />
      <glyph unicode="h" glyph-name="gid79" horiz-adv-x="544" d="M413,0V276q0,62-36.5,100.5T280,415q-41,0-72-18t-49-49t-18-71l-32,18q0,53 25,95t67.5,66T299,480q54,0 96-24.5T460.5,388T484,288V0H413ZM71,0V708h70V0H71Z" />
      <glyph unicode="i" glyph-name="gid80" horiz-adv-x="213" d="M71,0V470h71V0H71Zm35,572q-20,0-34,14.5T58,621q0,21 14,35t34,14q22,0 35.5-14T155,621q0-20-13.5-34.5T106,572Z" />
      <glyph unicode="j" glyph-name="gid86" horiz-adv-x="218" d="M-2-208q-41,0-71,14t-53,40l46,46q15-18 33.5-26T-5-142q34,0 58,20T77-59V470h70V-58q0-49-20.5-82.5T72-191T-2-208ZM112,572q-20,0-34,14.5T64,621q0,21 14,35t34,14q22,0 35.5-14T161,621q0-20-13.5-34.5T112,572Z" />
      <glyph unicode="k" glyph-name="gid88" horiz-adv-x="484" d="M374,0L134,241L370,470h87L200,223l3,40L467,0H374ZM71,0V708h70V0H71Z" />
      <glyph unicode="l" glyph-name="gid89" horiz-adv-x="212" d="M71,0V708h70V0H71Z" />
      <glyph unicode="m" glyph-name="gid90" horiz-adv-x="849" d="M71,0V470h70V0H71ZM394,0V288q0,58-35,92.5T271,415q-36,0-65.5-15.5t-47-43.5T141,289l-32,13q0,54 24,94t64.5,62T289,480q50,0 89.5-22t63-62T465,301V0H394ZM718,0V288q0,58-35,92.5T594,415q-35,0-64.5-15.5t-47-43.5T465,289l-42,13q3,54 28.5,94t67,62T610,480t90.5-22t64-62T788,301V0H718Z" />
      <glyph unicode="n" glyph-name="gid91" horiz-adv-x="544" d="M413,0V276q0,62-36.5,100.5T280,415q-41,0-72-18t-49-49t-18-71l-32,18q0,53 25,95t67.5,66T299,480q54,0 96-26t65.5-70T484,288V0H413ZM71,0V470h70V0H71Z" />
      <glyph unicode="o" glyph-name="gid93" horiz-adv-x="568" d="M284-10q-68,0-123.5,33t-88,89T40,237q0,68 32.5,123t88,87.5T284,480q69,0 124-32t87.5-87.5T528,237q0-70-32.5-125.5T408,23T284-10Zm0,68q50,0 88.5,23t61,64T456,237t-22.5,90.5t-61,62.5T284,413q-49,0-88-23t-61-62.5T113,237q0-52 22-92.5T196,81t88-23Z" />
      <glyph unicode="p" glyph-name="gid101" horiz-adv-x="585" d="M314-10q-54,0-97,22T146.5,72.5T113,162V309q6,52 34,90.5T218.5,459T314,480q65,0 117-32.5t82.5-88T544,234q0-69-30-124T431.5,22.5T314-10ZM71-198V470h70V350L127,236l14-115V-198H71ZM302,57q50,0 88,22.5t59.5,63T471,235q0,53-21.5,93T390,391t-87,23t-86.5-23T158,328t-21-93q0-52 21-92.5t58-63T302,57Z" />
      <glyph unicode="q" glyph-name="gid103" horiz-adv-x="585" d="M275-10q-66,0-119,32.5T72,110T41,234q0,70 31,125.5t83.5,88T274,480q54,0 96.5-21.5t69.5-60T472,309V162q-6-51-32.5-90T371,11.5T275-10Zm11,67q74,0 118,49t44,129q0,53-20,93.5t-57,63T285,414q-50,0-88.5-23T136,327.5T114,235t22-92t61-63t89-23ZM444-198V121l14,115L444,350V470h71V-198H444Z" />
      <glyph unicode="r" glyph-name="gid104" horiz-adv-x="414" d="M71,0V470h70V0H71Zm70,274l-29,13q0,89 43.5,141T275,480q35,0 64-12.5T393,428l-46-49q-17,19-37.5,27T263,414q-54,0-88-35.5T141,274Z" />
      <glyph unicode="s" glyph-name="gid105" horiz-adv-x="424" d="M215-10q-38,0-73,10.5T78.5,30T29,75l45,46q28-34 63.5-50.5T217,54q47,0 73.5,18T317,122q0,30-19,47t-48.5,27T187,215.5t-63,24T75.5,280T57,348q0,40 19.5,69.5t56,46T219,480q53,0 96-19t69-56l-45-45q-21,27-52.5,41.5T216,416q-45,0-68.5-17.5T124,353q0-27 19-42.5t48.5-25t62.5-19t63-25t48.5-42T384,128q0-63-45.5-100.5T215-10Z" />
      <glyph unicode="t" glyph-name="gid107" horiz-adv-x="357" d="M144,0V668h70V0H144ZM25,407v63H332V407H25Z" />
      <glyph unicode="u" glyph-name="gid108" horiz-adv-x="515" d="M257-10q-57,0-102,26.5T84.5,89T59,197V470h71V200q0-43 15.5-75T190,75t67-18q59,0 93.5,39T385,200V470h70V197q0-61-25-108T360,16T257-10Z" />
      <glyph unicode="v" glyph-name="gid113" horiz-adv-x="512" d="M235,0L18,470H96L279,59H235L419,470h76L276,0H235Z" />
      <glyph unicode="w" glyph-name="gid114" horiz-adv-x="746" d="M202,0L21,470H94L237,80l-26-1L353,470h41L536,79l-26,1L652,470h74L544,0H503L358,385h30L244,0H202Z" />
      <glyph unicode="x" glyph-name="gid115" horiz-adv-x="499" d="M391,0L234,214l-15,12L30,470h87L263,278l14-12L477,0H391ZM22,0L220,258l39-52L105,0H22ZM282,227l-40,51L386,470h83L282,227Z" />
      <glyph unicode="y" glyph-name="gid116" horiz-adv-x="510" d="M228-2L22,470H99L265,76H236L411,470h78L268-2H228ZM100-198L229,69L268-2L177-198H100Z" />
      <glyph unicode="z" glyph-name="gid119" horiz-adv-x="442" d="M30,39L327,432h83L113,39H30ZM30,0V39L91,64H404V0H30ZM47,407v63H410V432l-66-25H47Z" />
      <glyph unicode="{" glyph-name="gid181" horiz-adv-x="320" d="M235-96q-72,0-110,44T97,82l13,118q5,42-7.5,61.5T63,281H35v54H63q27,0 39.5,19.5T110,416L97,531q-10,89 28,133t110,44h45V652H243q-48,0-70-26.5T158,535l11-110q4-36-2.5-62.5t-26-43.5T85,293v27q36-7 55.5-24t26-43.5T169,190L158,78q-7-64 15-91t70-27h37V-96H235Z" />
      <glyph unicode="|" glyph-name="gid205" horiz-adv-x="275" d="M105-130V758h65V-130H105Z" />
      <glyph unicode="}" glyph-name="gid182" horiz-adv-x="320" d="M85-96H40v56H77q48,0 70,27t15,91L151,190q-3,36 3,62.5T179.5,296T235,320V293q-36,9-55.5,26T154,362.5T151,425l11,110q8,64-14.5,90.5T77,652H40v56H85q72,0 110-44t28-133L210,416q-5-42 7.5-61.5T257,335h28V281H257q-27,0-39.5-19.5T210,200L223,82Q233-8 195-52T85-96Z" />
      <glyph unicode="~" glyph-name="gid222" horiz-adv-x="537" d="M357,284q-26,0-47,6.5T270,306t-39,16t-45,7q-29,0-49.5-10.5T100,289L59,329q22,31 52.5,48.5T184,395q29,0 51-7t41-16t38-15.5t42-6.5q26,0 46,10t36,29l40-39q-21-31-51-48.5T357,284Z" />
      <glyph unicode="&#xa0;" glyph-name="gid159" horiz-adv-x="215" />
      <glyph unicode="&#xa1;" glyph-name="gid166" horiz-adv-x="264" d="M94-198l11,460h55l11-460H94Zm37,564q-24,0-40,16.5T75,423t16,40.5T131,480q25,0 41-16.5T188,423t-16-40.5T131,366Z" />
      <glyph unicode="&#xa2;" glyph-name="gid207" horiz-adv-x="514" d="M295,99q-69,0-124.5,32.5T83,220T51,345T83,469.5T170.5,557T295,589q53,0 99-20t79-56l-47-47q-24,27-57.5,41.5T295,522q-49,0-88-23t-61.5-62.5T123,345q0-51 22.5-91.5T207,190t88-23q40,0 74,14.5T428,223l46-47q-33-37-79.5-57T295,99ZM258,10V678h53V10H258Z" />
      <glyph unicode="&#xa3;" glyph-name="gid211" horiz-adv-x="617" d="M169,5V487q0,67 27.5,114t74,72T375,698q69,0 112-27t68-63l-49-49q-24,32-54,51.5T373,630q-36,0-66-16t-47-46.5T243,493V5H169ZM70,0V67H541V0H70Zm0,301v60H450V301H70Z" />
      <glyph unicode="&#xa4;" glyph-name="gid208" horiz-adv-x="529" d="M264,147q-55,0-100.5,26.5T91.5,245T65,345q0,56 26.5,100T163,515.5T264,542t101.5-26t72-70.5T464,345T437.5,244T366,173T264,147ZM80,123L42,160l83,83l38-37L80,123Zm184,88q38,0 66.5,17.5t45.5,48T393,346q0,38-17,67.5T330.5,460T264,477q-37,0-66-17t-45.5-47T136,345t16.5-68.5t46-48T264,211Zm185-88l-83,83l37,37l83-83l-37-37ZM125,446L42,529l38,38l83-83l-38-38Zm278,0l-37,38l83,83l37-38l-83-83Z" />
      <glyph unicode="&#xa5;" glyph-name="gid212" horiz-adv-x="647" d="M302,279L67,688h85L342,337H306L497,688h84L343,279H302ZM287,0V327h74V0H287ZM234,462l24-59H89v59H234ZM89,228v59H558V228H89ZM391,403l29,59H558V403H391Z" />
      <glyph unicode="&#xa6;" glyph-name="gid206" horiz-adv-x="275" d="M105,391V758h65V391H105Zm0-521V238h65V-130H105Z" />
      <glyph unicode="&#xa7;" glyph-name="gid200" horiz-adv-x="520" d="M267,140l1,53q53,0 83.5,22.5T382,276q0,37-20.5,57.5T308,366t-70,23t-69.5,28T115,464T94,545q0,46 21.5,80.5t61,53.5T270,698q59,0 106-23t74-65l-46-47q-23,34-59,51.5T267,632q-51,0-77.5-23.5T163,550t20.5-55T237,462.5T307,439t69.5-28.5T430,363t21-81q0-43-24-75t-65-49.5T267,140ZM250-121q-59,0-106,23.5T70-33l46,47q23-33 59-50.5T253-54q51,0 77.5,23.5T357,28T336.5,82.5t-53.5,32t-70,24t-69.5,29T90,215T69,295q0,45 24,76.5t65.5,49T253,438l-1-53q-53,0-83.5-23T138,302t20.5-57.5T212,212t70-23.5T351.5,160T405,113t21-81q0-45-21.5-79.5t-60.5-54T250-121Z" />
      <glyph unicode="&#xa8;" glyph-name="gid238" horiz-adv-x="407" d="M108,552q-20,0-34,14.5T60,601q0,21 14,35t34,14q22,0 35.5-14T157,601q0-20-13.5-34.5T108,552Zm190,0q-20,0-34,14.5T250,601q0,21 14,35t34,14q22,0 35.5-14T347,601q0-20-13.5-34.5T298,552Z" />
      <glyph unicode="&#xa9;" glyph-name="gid201" horiz-adv-x="842" d="M422-10q-77,0-141.5,27T169,93T96.5,206.5T71,345q0,75 25.5,139t72,112T279,671t141,27t142-27t111.5-75t72-112.5T771,344q0-74-25.5-138.5T673,92.5T562.5,17T422-10Zm5,158q-55,0-100,26t-71,71T230,345q0,56 26,100t71.5,70T428,541q42,0 79-15.5T571,480l-42-44q-18,21-44,32t-57,11q-36,0-66-17t-47-47t-17-70t17-70.5t47-48T428,209q32,0 58,11.5T531,253l41-44q-26-29-64-45t-81-16ZM420,28q92,0 162,42T691.5,184T731,345T691.5,505T582,618T420,660T258,618.5T149.5,506T111,345q0-89 39-161T259,70T420,28Z" />
      <glyph unicode="&#xaa;" glyph-name="gid128" horiz-adv-x="354" d="M163,398q-40,0-72,19.5T40.5,470T22,545q0,43 18,76.5t50,53T162,694q46,0 78-26.5T278,599V493q-6-41-37-68t-78-27Zm10,52q39,0 63.5,26.5T261,546t-24.5,69.5T172,642t-66-27T80,546t26-69t67-27Zm85-46v76l10,70l-10,68v70h56V404H258Z" />
      <glyph unicode="&#xab;" glyph-name="gid191" horiz-adv-x="441" d="M157,82L43,238L157,394h73L112,238L230,82H157Zm169,0L212,238L326,394h73L282,238L399,82H326Z" />
      <glyph unicode="&#xac;" glyph-name="gid223" horiz-adv-x="537" d="M64,352v63H473V352H64Zm344,50h65V180H408V402Z" />
      <glyph unicode="&#xae;" glyph-name="gid202" horiz-adv-x="578" d="M290,268q-63,0-111,29t-75.5,78T76,484q0,61 27,109t74.5,76.5T288,698t111.5-28.5t75.5-77T502,484q0-61-27-110t-75-77.5T290,268ZM218,373V600h31V373H218Zm134,0L266,479h37l87-106H352Zm-64-79q56,0 97.5,25.5t65.5,68T475,484q0,53-24,95.5T385.5,647T288,672q-54,0-95.5-25t-65-67.5T104,484q0-54 23.5-96.5t65-68T288,294ZM233,475v28h66q20,0 30,9.5T339,537q0,14-10,24.5T299,572H233v28h67q32,0 51-17.5T370,538q0-29-19-46t-51-17H233Z" />
      <glyph unicode="&#xaf;" glyph-name="gid244" horiz-adv-x="423" d="M40,630H383V571H40v59Z" />
      <glyph unicode="&#xb0;" glyph-name="gid204" horiz-adv-x="396" d="M198,394q-44,0-78.5,19.5t-54,54T46,545q0,44 19.5,78.5t54,54.5T198,698t78.5-20T331,623.5T351,545q0-43-20-77.5t-54.5-54T198,394Zm1,56q39,0 65,27.5T290,546q0,42-25.5,69T199,642q-41,0-66.5-27T107,546q0-41 26-68.5T199,450Z" />
      <glyph unicode="&#xb1;" glyph-name="gid221" horiz-adv-x="537" d="M64,362v63H473V362H64ZM236,553h65V235H236V553ZM64,115v63H473V115H64Z" />
      <glyph unicode="&#xb2;" glyph-name="gid155" horiz-adv-x="333" d="M40,375L174,512q26,26 34.5,41.5T217,586q0,24-15.5,38.5T159,639q-23,0-41-12T83,590L41,628q21,33 52.5,49.5T164,694q53,0 84-28.5T279,587q0-30-13-54.5T219,474L118,374l-78,1Zm0-35v35l52,18H287V340H40Z" />
      <glyph unicode="&#xb3;" glyph-name="gid156" horiz-adv-x="332" d="M151,334q-36,0-65.5,13.5T36,384l40,40q11-16 31.5-26T150,388q31,0 50.5,17T220,451t-20,45.5T146,513q-8,0-18-1t-18-3l26,34q17,6 27.5,8t19.5,2q42,0 70.5-28.5T282,449q0-51-36-83t-95-32ZM110,509v35l97,110l69-1L176,542l-66-33ZM56,635v53H276V653l-49-18H56Z" />
      <glyph unicode="&#xb4;" glyph-name="gid240" horiz-adv-x="269" d="M72,543L40,575L173,733l56-56L72,543Z" />
      <glyph unicode="&#xb5;" glyph-name="gid225" horiz-adv-x="583" d="M105-185V470h71V-185H105ZM312-10q-81,0-127,52T139,176l37,18q0-65 35-101t90-36t92.5,35T431,194V470h70V187q0-58-24.5-102.5T409.5,15T312-10Z" />
      <glyph unicode="&#xb6;" glyph-name="gid199" horiz-adv-x="694" d="M374,276H280q-61,0-110,25.5T92.5,373T64,482T92.5,591T170,662.5T280,688H638V624H286q-43,0-76.5-17.5t-52.5-49T138,482t19-75.5T209.5,358T286,341h88V276Zm27-376H337V688h64V-100Zm148,0H485V688h64V-100Z" />
      <glyph unicode="&#xb7;" glyph-name="gid169" horiz-adv-x="113" d="M57,304q-25,0-41,17T0,362t16,40.5T57,419q24,0 40-16.5T113,362T97,321T57,304Z" />
      <glyph unicode="&#xb8;" glyph-name="gid245" horiz-adv-x="268" d="M131-208q-33,0-62,10T16-170l35,39q14-12 33-19.5t43-7.5q32,0 48.5,10.5T192-120q0,18-17,29T125-80H89l28,91h58L152-59L125-36q61,1 95.5-22.5T255-121t-33.5-63T131-208Z" />
      <glyph unicode="&#xb9;" glyph-name="gid154" horiz-adv-x="254" d="M106,340V688h63V340H106ZM36,635v53H164V635H36Z" />
      <glyph unicode="&#xba;" glyph-name="gid129" horiz-adv-x="344" d="M172,397q-42,0-76.5,19.5T41,470T21,546t20,75.5t54.5,53T172,694q43,0 76.5-19.5t54-53T323,546t-20-76t-54-53.5T172,397Zm0,53q41,0 67,27.5T265,547q0,41-26.5,67.5T172,641t-66.5-27T79,546q0-42 26.5-69T172,450Z" />
      <glyph unicode="&#xbb;" glyph-name="gid192" horiz-adv-x="441" d="M211,82L329,238L211,394h73L398,238L284,82H211ZM42,82L159,238L42,394h73L229,238L115,82H42Z" />
      <glyph unicode="&#xbc;" glyph-name="gid152" horiz-adv-x="663" d="M271,300l31-28L104-13L42,45L271,300Zm89,91l-31,27L527,703l62-57L360,391ZM145,340V688h62V340H145ZM74,635v53H202V635H74ZM341,104L460,338h68L407,104H341Zm0-35v35l19,18H616V69H341ZM513-10V209h62V-10H513Z" />
      <glyph unicode="&#xbd;" glyph-name="gid151" horiz-adv-x="656" d="M271,300l31-28L104-13L42,45L271,300Zm89,91l-31,27L527,703l62-57L360,391ZM145,340V688h62V340H145ZM74,635v53H202V635H74ZM353,25L487,162q25,26 33.5,41.5T529,236q0,24-15.5,38.5T472,289q-23,0-41.5-12T395,240l-42,38q22,33 53,49.5T476,344q53,0 84.5-28.5T592,237q0-30-13-54.5T532,124L431,24l-78,1Zm0-35V25l52,18H600V-10H353Z" />
      <glyph unicode="&#xbe;" glyph-name="gid153" horiz-adv-x="656" d="M279,302l31-25L122-13L60,45L279,302Zm114,86l-31,25L550,703l62-57L393,388ZM169,334q-36,0-65.5,13.5T54,384l40,40q11-16 31.5-26T168,388q31,0 50.5,17T238,451t-20,45.5T164,513q-8,0-18-1t-18-3l26,34q17,6 27.5,8t19.5,2q42,0 70.5-28.5T300,449q0-51-36-83t-95-32ZM128,509v35l97,110l69-1L194,542l-66-33ZM74,635v53H294V653l-49-18H74ZM321,104L439,338h69L387,104H321Zm0-35v35l19,18H596V69H321ZM493-10V209h62V-10H493Z" />
      <glyph unicode="&#xbf;" glyph-name="gid168" horiz-adv-x="494" d="M255-208q-58,0-102.5,25T83-115T58-18q0,55 23.5,96T147,145t98,32l-29-32l6,117h60l2-147l-26-1q-56-1-91.5-35.5T131-14q0-35 16-63.5t44.5-45T258-139q53,0 89,25t58,67l52-45q-28-52-80-84T255-208Zm-2,574q-24,0-40,16.5T197,423q0,25 16,41t40,16q25,0 41-16t16-41q0-24-16-40.5T253,366Z" />
      <glyph unicode="&#xc0;" glyph-name="gid6" horiz-adv-x="690" d="M37,0L319,688h55L653,0H574L331,608h29L115,0H37ZM166,179v65H526V179H166ZM385,756L228,890l56,56L417,788l-32-32Z" />
      <glyph unicode="&#xc1;" glyph-name="gid2" horiz-adv-x="690" d="M37,0L319,688h55L653,0H574L331,608h29L115,0H37ZM166,179v65H526V179H166ZM283,761l-32,32L384,951l56-56L283,761Z" />
      <glyph unicode="&#xc2;" glyph-name="gid4" horiz-adv-x="690" d="M37,0L319,688h55L653,0H574L331,608h29L115,0H37ZM166,179v65H526V179H166Zm46,581l-32,32L317,946h56L510,792l-32-32L322,896l47-1L212,760Z" />
      <glyph unicode="&#xc3;" glyph-name="gid8" horiz-adv-x="690" d="M37,0L319,688h55L653,0H574L331,608h29L115,0H37ZM166,179v65H526V179H166ZM419,766q-32,0-54,11.5T322.5,800T277,811q-27,0-42-10t-28-28l-39,38q22,27 46.5,44T276,872q33,0 55.5-11T374,838.5T418,827t39,9.5T484,864l39-37q-21-28-45.5-44.5T419,766Z" />
      <glyph unicode="&#xc4;" glyph-name="gid5" horiz-adv-x="690" d="M37,0L319,688h55L653,0H574L331,608h29L115,0H37ZM166,179v65H526V179H166Zm84,591q-20,0-34,14.5T202,819q0,21 14,35t34,14q22,0 35.5-14T299,819q0-20-13.5-34.5T250,770Zm190,0q-20,0-34,14.5T392,819q0,21 14,35t34,14q22,0 35.5-14T489,819q0-20-13.5-34.5T440,770Z" />
      <glyph unicode="&#xc5;" glyph-name="gid7" horiz-adv-x="690" d="M37,0L319,688h55L653,0H574L331,608h29L115,0H37ZM166,179v65H526V179H166ZM346,660q-33,0-59,15t-41,40.5T231,773t15,57.5T287,871t59,15q32,0 57.5-15t40-40.5T458,773t-14.5-57.5T404,675t-58-15Zm1,53q23,0 40,17t17,43t-17,43.5T347,834q-28,0-44.5-17.5T286,773q0-25 16.5-42.5T347,713Z" />
      <glyph unicode="&#xc6;" glyph-name="gid9" horiz-adv-x="965" d="M37,0L319,688H549V621H365L115,0H37ZM173,254v64H525V254H173ZM545,0V67H916V0H545ZM496,0V688h74V0H496Zm46,320v65H884V320H542Zm3,301v67H911V621H545Z" />
      <glyph unicode="&#xc7;" glyph-name="gid12" horiz-adv-x="693" d="M400-10q-74,0-137.5,27T152,93T79.5,206.5T54,345T79.5,483.5t72,112.5T261,671t136,27q79,0 141.5-28T648,593l-50-50q-36,40-87,62.5T397,628q-58,0-106.5-21t-85-59.5t-56-90T130,345t20-113t56-90.5T291,82T398,61q66,0 117.5,23T603,147l50-51Q607,47 543,18.5T400-10ZM368-208q-33,0-62,10t-53,28l35,39q14-12 33-19.5t43-7.5q32,0 48.5,10.5T429-120q0,18-17,29T362-80H326l28,91h58L389-59L362-36q61,1 95.5-22.5T492-121t-33.5-63T368-208Z" />
      <glyph unicode="&#xc8;" glyph-name="gid19" horiz-adv-x="589" d="M88,0V688h73V0H88Zm48,0V67H541V0H136Zm0,320v65H509V320H136Zm0,301v67H535V621H136ZM356,756L199,890l56,56L388,788l-32-32Z" />
      <glyph unicode="&#xc9;" glyph-name="gid16" horiz-adv-x="589" d="M88,0V688h73V0H88Zm48,0V67H541V0H136Zm0,320v65H509V320H136Zm0,301v67H535V621H136ZM254,761l-32,32L355,951l56-56L254,761Z" />
      <glyph unicode="&#xca;" glyph-name="gid17" horiz-adv-x="589" d="M88,0V688h73V0H88Zm48,0V67H541V0H136Zm0,320v65H509V320H136Zm0,301v67H535V621H136Zm47,139l-32,32L288,946h56L481,792l-32-32L293,896l47-1L183,760Z" />
      <glyph unicode="&#xcb;" glyph-name="gid18" horiz-adv-x="589" d="M88,0V688h73V0H88Zm48,0V67H541V0H136Zm0,320v65H509V320H136Zm0,301v67H535V621H136Zm85,149q-20,0-34,14.5T173,819q0,21 14,35t34,14q22,0 35.5-14T270,819q0-20-13.5-34.5T221,770Zm190,0q-20,0-34,14.5T363,819q0,21 14,35t34,14q22,0 35.5-14T460,819q0-20-13.5-34.5T411,770Z" />
      <glyph unicode="&#xcc;" glyph-name="gid27" horiz-adv-x="249" d="M88,0V688h73V0H88Zm76,756L7,890l56,56L196,788l-32-32Z" />
      <glyph unicode="&#xcd;" glyph-name="gid24" horiz-adv-x="249" d="M88,0V688h73V0H88ZM62,761L30,793L163,951l56-56L62,761Z" />
      <glyph unicode="&#xce;" glyph-name="gid25" horiz-adv-x="249" d="M88,0V688h73V0H88ZM-8,760l-32,32L97,946h56L290,792l-32-32L102,896l47-1L-8,760Z" />
      <glyph unicode="&#xcf;" glyph-name="gid26" horiz-adv-x="249" d="M88,0V688h73V0H88ZM29,770Q9,770-5,784.5T-19,819q0,21 14,35t34,14q22,0 35.5-14T78,819q0-20-13.5-34.5T29,770Zm190,0q-20,0-34,14.5T171,819q0,21 14,35t34,14q22,0 35.5-14T268,819q0-20-13.5-34.5T219,770Z" />
      <glyph unicode="&#xd0;" glyph-name="gid14" horiz-adv-x="749" d="M19,381H381V320H19v61ZM143,0V68H345q81,0 143,35.5t97,98T620,345T585,488t-97,97.5T345,621H145v67H347q75,0 138.5-25.5t111-72t73.5-109T696,344q0-73-26-136T597,98.5T486.5,26T349,0H143ZM98,0V688h73V0H98Z" />
      <glyph unicode="&#xd1;" glyph-name="gid33" horiz-adv-x="703" d="M88,0V688h52l21-87V0H88ZM564,0L129,590l11,98L574,98L564,0Zm0,0L542,83V688h74V0H564ZM426,766q-32,0-54,11.5T329.5,800T284,811q-27,0-42-10t-28-28l-39,38q22,27 46.5,44T283,872q33,0 55.5-11T381,838.5T425,827t39,9.5T491,864l39-37q-21-28-45.5-44.5T426,766Z" />
      <glyph unicode="&#xd2;" glyph-name="gid38" horiz-adv-x="794" d="M398-10q-73,0-135.5,27.5T153,93.5t-73.5,113T53,345q0,75 26,139t73,112t109,75t135,27t135.5-27T641,596t73-112.5T740,344q0-74-26-138.5T641.5,93T533,17.5T398-10Zm-2,71q78,0 138.5,37t95,101T664,345q0,61-20,112.5t-56,90T503.5,607T396,628q-77,0-137.5-36.5T163.5,491T129,345q0-61 20-113t56-90.5T290,82T396,61Zm41,695L280,890l56,56L469,788l-32-32Z" />
      <glyph unicode="&#xd3;" glyph-name="gid35" horiz-adv-x="794" d="M398-10q-73,0-135.5,27.5T153,93.5t-73.5,113T53,345q0,75 26,139t73,112t109,75t135,27t135.5-27T641,596t73-112.5T740,344q0-74-26-138.5T641.5,93T533,17.5T398-10Zm-2,71q78,0 138.5,37t95,101T664,345q0,61-20,112.5t-56,90T503.5,607T396,628q-77,0-137.5-36.5T163.5,491T129,345q0-61 20-113t56-90.5T290,82T396,61ZM335,761l-32,32L436,951l56-56L335,761Z" />
      <glyph unicode="&#xd4;" glyph-name="gid36" horiz-adv-x="794" d="M398-10q-73,0-135.5,27.5T153,93.5t-73.5,113T53,345q0,75 26,139t73,112t109,75t135,27t135.5-27T641,596t73-112.5T740,344q0-74-26-138.5T641.5,93T533,17.5T398-10Zm-2,71q78,0 138.5,37t95,101T664,345q0,61-20,112.5t-56,90T503.5,607T396,628q-77,0-137.5-36.5T163.5,491T129,345q0-61 20-113t56-90.5T290,82T396,61ZM264,760l-32,32L369,946h56L562,792l-32-32L374,896l47-1L264,760Z" />
      <glyph unicode="&#xd5;" glyph-name="gid40" horiz-adv-x="794" d="M398-10q-73,0-135.5,27.5T153,93.5t-73.5,113T53,345q0,75 26,139t73,112t109,75t135,27t135.5-27T641,596t73-112.5T740,344q0-74-26-138.5T641.5,93T533,17.5T398-10Zm-2,71q78,0 138.5,37t95,101T664,345q0,61-20,112.5t-56,90T503.5,607T396,628q-77,0-137.5-36.5T163.5,491T129,345q0-61 20-113t56-90.5T290,82T396,61Zm75,705q-32,0-54,11.5T374.5,800T329,811q-27,0-42-10t-28-28l-39,38q22,27 46.5,44T328,872q33,0 55.5-11T426,838.5T470,827t39,9.5T536,864l39-37q-21-28-45.5-44.5T471,766Z" />
      <glyph unicode="&#xd6;" glyph-name="gid37" horiz-adv-x="794" d="M398-10q-73,0-135.5,27.5T153,93.5t-73.5,113T53,345q0,75 26,139t73,112t109,75t135,27t135.5-27T641,596t73-112.5T740,344q0-74-26-138.5T641.5,93T533,17.5T398-10Zm-2,71q78,0 138.5,37t95,101T664,345q0,61-20,112.5t-56,90T503.5,607T396,628q-77,0-137.5-36.5T163.5,491T129,345q0-61 20-113t56-90.5T290,82T396,61ZM302,770q-20,0-34,14.5T254,819q0,21 14,35t34,14q22,0 35.5-14T351,819q0-20-13.5-34.5T302,770Zm190,0q-20,0-34,14.5T444,819q0,21 14,35t34,14q22,0 35.5-14T541,819q0-20-13.5-34.5T492,770Z" />
      <glyph unicode="&#xd7;" glyph-name="gid216" horiz-adv-x="537" d="M117,136L71,182L420,531l46-46L117,136Zm296,7L78,478l46,46L459,189l-46-46Z" />
      <glyph unicode="&#xd8;" glyph-name="gid39" horiz-adv-x="794" d="M686,682l48-48L107,6L59,55L686,682ZM398-10q-73,0-136,27.5t-110,76t-73,113T53,345q0,75 26,139t72.5,112t109,75T396,698t135.5-27t109-75t73-112.5T740,344q0-74-26-138.5T641,93T532,17.5T398-10Zm-2,71q78,0 138,37t95,101t35,146q0,61-20,112.5t-56,90T503,607T396,628q-78,0-138-36.5T163.5,491T129,345q0-61 20-113t55.5-90.5T289,82T396,61Z" />
      <glyph unicode="&#xd9;" glyph-name="gid52" horiz-adv-x="676" d="M339-10q-75,0-133.5,33.5t-92.5,92T79,247V688h74V251q0-58 24-101t66.5-66T339,61t94.5,23t66,65.5T524,250V688h73V246q0-73-33.5-131t-92-91.5T339-10Zm39,766L221,890l56,56L410,788l-32-32Z" />
      <glyph unicode="&#xda;" glyph-name="gid49" horiz-adv-x="676" d="M339-10q-75,0-133.5,33.5t-92.5,92T79,247V688h74V251q0-58 24-101t66.5-66T339,61t94.5,23t66,65.5T524,250V688h73V246q0-73-33.5-131t-92-91.5T339-10ZM276,761l-32,32L377,951l56-56L276,761Z" />
      <glyph unicode="&#xdb;" glyph-name="gid50" horiz-adv-x="676" d="M339-10q-75,0-133.5,33.5t-92.5,92T79,247V688h74V251q0-58 24-101t66.5-66T339,61t94.5,23t66,65.5T524,250V688h73V246q0-73-33.5-131t-92-91.5T339-10ZM205,760l-32,32L310,946h56L503,792l-32-32L315,896l47-1L205,760Z" />
      <glyph unicode="&#xdc;" glyph-name="gid51" horiz-adv-x="676" d="M339-10q-75,0-133.5,33.5t-92.5,92T79,247V688h74V251q0-58 24-101t66.5-66T339,61t94.5,23t66,65.5T524,250V688h73V246q0-73-33.5-131t-92-91.5T339-10ZM243,770q-20,0-34,14.5T195,819q0,21 14,35t34,14q22,0 35.5-14T292,819q0-20-13.5-34.5T243,770Zm190,0q-20,0-34,14.5T385,819q0,21 14,35t34,14q22,0 35.5-14T482,819q0-20-13.5-34.5T433,770Z" />
      <glyph unicode="&#xdd;" glyph-name="gid57" horiz-adv-x="659" d="M308,284L35,688h86L348,349H312L541,688h83L349,284H308ZM293,0V337h74V0H293ZM267,761l-32,32L368,951l56-56L267,761Z" />
      <glyph unicode="&#xde;" glyph-name="gid43" horiz-adv-x="608" d="M135,147v64H338q42,0 75.5,17t53,49T486,353q0,43-19.5,75t-53,49T338,494H135v65H343q62,0 111-25.5t77.5-72T560,353q0-63-28.5-109T454,172.5T343,147H135ZM88,0V688h73V0H88Z" />
      <glyph unicode="&#xdf;" glyph-name="gid106" horiz-adv-x="568" d="M319-10q-45,0-79.5,13T179,42l44,52q17-17 42-27t56-10q41,0 70.5,18t46,49.5T454,197q0,40-18.5,72.5t-52,51.5T307,340H246v62h33q37,0 63.5,17.5t41,46.5T398,531q0,34-15,61.5t-43,44T272,653q-57,0-93.5-35T142,526V0H71V526q0,55 25.5,98.5t71,68.5T272,718q61,0 105-24.5t68-66T469,535q0-63-36.5-108.5T335,368l5,26q57-3 100-29t66.5-69.5T530,195q0-44-15-81T472.5,49T406,5.5T319-10Z" />
      <glyph unicode="&#xe0;" glyph-name="gid63" horiz-adv-x="585" d="M275-10q-67,0-120,32.5T71.5,110T41,234q0,70 30.5,125.5t83.5,88T274,480q54,0 96.5-21.5t69-60T472,309V162q-6-51-32.5-90t-69-60.5T275-10Zm11,67q73,0 117.5,49T448,235q0,53-20.5,93.5t-57,63T285,414q-50,0-88.5-23t-61-63.5T113,235t22.5-92T197,80t89-23ZM444,0V126l14,116L444,355V470h70V0H444ZM337,538L180,672l56,56L369,570l-32-32Z" />
      <glyph unicode="&#xe1;" glyph-name="gid60" horiz-adv-x="585" d="M275-10q-67,0-120,32.5T71.5,110T41,234q0,70 30.5,125.5t83.5,88T274,480q54,0 96.5-21.5t69-60T472,309V162q-6-51-32.5-90t-69-60.5T275-10Zm11,67q73,0 117.5,49T448,235q0,53-20.5,93.5t-57,63T285,414q-50,0-88.5-23t-61-63.5T113,235t22.5-92T197,80t89-23ZM444,0V126l14,116L444,355V470h70V0H444ZM235,543l-32,32L336,733l56-56L235,543Z" />
      <glyph unicode="&#xe2;" glyph-name="gid61" horiz-adv-x="585" d="M275-10q-67,0-120,32.5T71.5,110T41,234q0,70 30.5,125.5t83.5,88T274,480q54,0 96.5-21.5t69-60T472,309V162q-6-51-32.5-90t-69-60.5T275-10Zm11,67q73,0 117.5,49T448,235q0,53-20.5,93.5t-57,63T285,414q-50,0-88.5-23t-61-63.5T113,235t22.5-92T197,80t89-23ZM444,0V126l14,116L444,355V470h70V0H444ZM164,542l-32,32L269,728h56L462,574l-32-32L274,678l47-1L164,542Z" />
      <glyph unicode="&#xe3;" glyph-name="gid65" horiz-adv-x="585" d="M275-10q-67,0-120,32.5T71.5,110T41,234q0,70 30.5,125.5t83.5,88T274,480q54,0 96.5-21.5t69-60T472,309V162q-6-51-32.5-90t-69-60.5T275-10Zm11,67q73,0 117.5,49T448,235q0,53-20.5,93.5t-57,63T285,414q-50,0-88.5-23t-61-63.5T113,235t22.5-92T197,80t89-23ZM444,0V126l14,116L444,355V470h70V0H444ZM371,548q-32,0-54,11.5T274.5,582T229,593q-27,0-42-10t-28-28l-39,38q22,27 46.5,44T228,654q33,0 55.5-11T326,620.5T370,609t39,9.5T436,646l39-37q-21-28-45.5-44.5T371,548Z" />
      <glyph unicode="&#xe4;" glyph-name="gid62" horiz-adv-x="585" d="M275-10q-67,0-120,32.5T71.5,110T41,234q0,70 30.5,125.5t83.5,88T274,480q54,0 96.5-21.5t69-60T472,309V162q-6-51-32.5-90t-69-60.5T275-10Zm11,67q73,0 117.5,49T448,235q0,53-20.5,93.5t-57,63T285,414q-50,0-88.5-23t-61-63.5T113,235t22.5-92T197,80t89-23ZM444,0V126l14,116L444,355V470h70V0H444ZM202,552q-20,0-34,14.5T154,601q0,21 14,35t34,14q22,0 35.5-14T251,601q0-20-13.5-34.5T202,552Zm190,0q-20,0-34,14.5T344,601q0,21 14,35t34,14q22,0 35.5-14T441,601q0-20-13.5-34.5T392,552Z" />
      <glyph unicode="&#xe5;" glyph-name="gid64" horiz-adv-x="585" d="M275-10q-67,0-120,32.5T71.5,110T41,234q0,70 30.5,125.5t83.5,88T274,480q54,0 96.5-21.5t69-60T472,309V162q-6-51-32.5-90t-69-60.5T275-10Zm11,67q73,0 117.5,49T448,235q0,53-20.5,93.5t-57,63T285,414q-50,0-88.5-23t-61-63.5T113,235t22.5-92T197,80t89-23ZM444,0V126l14,116L444,355V470h70V0H444ZM298,527q-33,0-59,15t-41,40.5T183,640t15,57.5T239,738t59,15q32,0 57.5-15t40-40.5T410,640t-14.5-57.5T356,542t-58-15Zm1,53q23,0 40,17t17,43t-17,43.5T299,701q-28,0-44.5-17.5T238,640q0-25 16.5-42.5T299,580Z" />
      <glyph unicode="&#xe6;" glyph-name="gid66" horiz-adv-x="946" d="M696-10q-71,0-127,32t-88.5,88T448,236q0,69 32,124.5T567,448t123,32q64,0 113.5-29t78-80.5T910,252q0-8-1-18.5T905,209H498v60H867l-25-22q1,52-17.5,89.5t-53,58T688,415q-51,0-89-22t-59.5-61.5T518,238t22.5-95t63-64T697,56q43,0 79,15.5T837,118l45-46q-33-39-81.5-60.5T696-10ZM275-10q-67,0-120,32.5T71.5,110T41,234q0,70 30.5,125.5t83.5,88T274,480q54,0 96.5-21.5t69-60T472,309V162q-6-51-32.5-90t-69-60.5T275-10Zm11,67q73,0 117.5,49T448,235q0,53-20.5,93.5t-57,63T285,414q-50,0-88.5-23t-61-63.5T113,235t22.5-92T197,80t89-23ZM444,0V126l14,116L444,355V470h70V0H444Z" />
      <glyph unicode="&#xe7;" glyph-name="gid69" horiz-adv-x="491" d="M285-10q-69,0-124.5,32.5T72.5,111T40,236T72.5,360.5t88,87.5T285,480q53,0 99-20t78-56l-46-47q-24,27-58,41.5T285,413q-50,0-89-23t-61-62.5T113,236q0-51 22-91.5T196,81t89-23q40,0 74,14.5T417,114l47-47q-33-37-79.5-57T285-10ZM253-208q-33,0-62,10t-53,28l35,39q14-12 33-19.5t43-7.5q32,0 48.5,10.5T314-120q0,18-17,29T247-80H211l28,91h58L274-59L247-36q61,1 95.5-22.5T377-121t-33.5-63T253-208Z" />
      <glyph unicode="&#xe8;" glyph-name="gid76" horiz-adv-x="538" d="M288-10q-71,0-127,32T72.5,110T40,236q0,69 32,124.5T159,448t123,32q64,0 113.5-29t78-80.5T502,252q0-8-1-18.5T497,209H90v60H459l-25-22q1,52-17.5,89.5t-53,58T280,415q-51,0-89-22t-59.5-61.5T110,238t22.5-95t63-64T289,56q43,0 79,15.5T429,118l45-46q-33-39-81.5-60.5T288-10Zm33,548L164,672l56,56L353,570l-32-32Z" />
      <glyph unicode="&#xe9;" glyph-name="gid73" horiz-adv-x="538" d="M288-10q-71,0-127,32T72.5,110T40,236q0,69 32,124.5T159,448t123,32q64,0 113.5-29t78-80.5T502,252q0-8-1-18.5T497,209H90v60H459l-25-22q1,52-17.5,89.5t-53,58T280,415q-51,0-89-22t-59.5-61.5T110,238t22.5-95t63-64T289,56q43,0 79,15.5T429,118l45-46q-33-39-81.5-60.5T288-10ZM219,543l-32,32L320,733l56-56L219,543Z" />
      <glyph unicode="&#xea;" glyph-name="gid74" horiz-adv-x="538" d="M288-10q-71,0-127,32T72.5,110T40,236q0,69 32,124.5T159,448t123,32q64,0 113.5-29t78-80.5T502,252q0-8-1-18.5T497,209H90v60H459l-25-22q1,52-17.5,89.5t-53,58T280,415q-51,0-89-22t-59.5-61.5T110,238t22.5-95t63-64T289,56q43,0 79,15.5T429,118l45-46q-33-39-81.5-60.5T288-10ZM148,542l-32,32L253,728h56L446,574l-32-32L258,678l47-1L148,542Z" />
      <glyph unicode="&#xeb;" glyph-name="gid75" horiz-adv-x="538" d="M288-10q-71,0-127,32T72.5,110T40,236q0,69 32,124.5T159,448t123,32q64,0 113.5-29t78-80.5T502,252q0-8-1-18.5T497,209H90v60H459l-25-22q1,52-17.5,89.5t-53,58T280,415q-51,0-89-22t-59.5-61.5T110,238t22.5-95t63-64T289,56q43,0 79,15.5T429,118l45-46q-33-39-81.5-60.5T288-10ZM186,552q-20,0-34,14.5T138,601q0,21 14,35t34,14q22,0 35.5-14T235,601q0-20-13.5-34.5T186,552Zm190,0q-20,0-34,14.5T328,601q0,21 14,35t34,14q22,0 35.5-14T425,601q0-20-13.5-34.5T376,552Z" />
      <glyph unicode="&#xec;" glyph-name="gid85" horiz-adv-x="212" d="M71,0V470h71V0H71Zm75,538L-11,672l56,56L178,570l-32-32Z" />
      <glyph unicode="&#xed;" glyph-name="gid82" horiz-adv-x="212" d="M71,0V470h71V0H71ZM44,543L12,575L145,733l56-56L44,543Z" />
      <glyph unicode="&#xee;" glyph-name="gid83" horiz-adv-x="212" d="M71,0V470h71V0H71ZM-27,542l-32,32L78,728h56L271,574l-32-32L83,678l47-1L-27,542Z" />
      <glyph unicode="&#xef;" glyph-name="gid84" horiz-adv-x="212" d="M71,0V470h71V0H71ZM11,552q-20,0-34,14.5T-37,601q0,21 14,35t34,14q22,0 35.5-14T60,601q0-20-13.5-34.5T11,552Zm190,0q-20,0-34,14.5T153,601q0,21 14,35t34,14q22,0 35.5-14T250,601q0-20-13.5-34.5T201,552Z" />
      <glyph unicode="&#xf0;" glyph-name="gid71" horiz-adv-x="565" d="M284-10q-66,0-120,32T78,107.5T46,226T76,342t80.5,80.5T267,452q32,0 55.5-7t42-19.5T397,395l-26,10L157,688h86L459,396q61-84 61-172q0-65-31-118T404,21.5T284-10Zm-1,68q46,0 83.5,22t59,60.5T447,226q0,48-21.5,85.5t-59,60T283,394q-45,0-82.5-22.5T141,311t-22-85q0-46 22-84.5t59.5-61T283,58ZM118,500L98,552L415,669l20-52L118,500Z" />
      <glyph unicode="&#xf1;" glyph-name="gid92" horiz-adv-x="544" d="M413,0V276q0,62-36.5,100.5T280,415q-41,0-72-18t-49-49t-18-71l-32,18q0,53 25,95t67.5,66T299,480q54,0 96-26t65.5-70T484,288V0H413ZM71,0V470h70V0H71ZM346,548q-32,0-54,11.5T249.5,582T204,593q-27,0-42-10t-28-28L95,593q22,27 46.5,44T203,654q33,0 55.5-11T301,620.5T345,609t39,9.5T411,646l39-37q-21-28-45.5-44.5T346,548Z" />
      <glyph unicode="&#xf2;" glyph-name="gid97" horiz-adv-x="568" d="M284-10q-68,0-123.5,33t-88,89T40,237q0,68 32.5,123t88,87.5T284,480q69,0 124-32t87.5-87.5T528,237q0-70-32.5-125.5T408,23T284-10Zm0,68q50,0 88.5,23t61,64T456,237t-22.5,90.5t-61,62.5T284,413q-49,0-88-23t-61-62.5T113,237q0-52 22-92.5T196,81t88-23Zm40,480L167,672l56,56L356,570l-32-32Z" />
      <glyph unicode="&#xf3;" glyph-name="gid94" horiz-adv-x="568" d="M284-10q-68,0-123.5,33t-88,89T40,237q0,68 32.5,123t88,87.5T284,480q69,0 124-32t87.5-87.5T528,237q0-70-32.5-125.5T408,23T284-10Zm0,68q50,0 88.5,23t61,64T456,237t-22.5,90.5t-61,62.5T284,413q-49,0-88-23t-61-62.5T113,237q0-52 22-92.5T196,81t88-23ZM222,543l-32,32L323,733l56-56L222,543Z" />
      <glyph unicode="&#xf4;" glyph-name="gid95" horiz-adv-x="568" d="M284-10q-68,0-123.5,33t-88,89T40,237q0,68 32.5,123t88,87.5T284,480q69,0 124-32t87.5-87.5T528,237q0-70-32.5-125.5T408,23T284-10Zm0,68q50,0 88.5,23t61,64T456,237t-22.5,90.5t-61,62.5T284,413q-49,0-88-23t-61-62.5T113,237q0-52 22-92.5T196,81t88-23ZM152,542l-32,32L257,728h56L450,574l-32-32L262,678l47-1L152,542Z" />
      <glyph unicode="&#xf5;" glyph-name="gid99" horiz-adv-x="568" d="M284-10q-68,0-123.5,33t-88,89T40,237q0,68 32.5,123t88,87.5T284,480q69,0 124-32t87.5-87.5T528,237q0-70-32.5-125.5T408,23T284-10Zm0,68q50,0 88.5,23t61,64T456,237t-22.5,90.5t-61,62.5T284,413q-49,0-88-23t-61-62.5T113,237q0-52 22-92.5T196,81t88-23Zm74,490q-32,0-54,11.5T261.5,582T216,593q-27,0-42-10t-28-28l-39,38q22,27 46.5,44T215,654q33,0 55.5-11T313,620.5T357,609t39,9.5T423,646l39-37q-21-28-45.5-44.5T358,548Z" />
      <glyph unicode="&#xf6;" glyph-name="gid96" horiz-adv-x="568" d="M284-10q-68,0-123.5,33t-88,89T40,237q0,68 32.5,123t88,87.5T284,480q69,0 124-32t87.5-87.5T528,237q0-70-32.5-125.5T408,23T284-10Zm0,68q50,0 88.5,23t61,64T456,237t-22.5,90.5t-61,62.5T284,413q-49,0-88-23t-61-62.5T113,237q0-52 22-92.5T196,81t88-23ZM189,552q-20,0-34,14.5T141,601q0,21 14,35t34,14q22,0 35.5-14T238,601q0-20-13.5-34.5T189,552Zm190,0q-20,0-34,14.5T331,601q0,21 14,35t34,14q22,0 35.5-14T428,601q0-20-13.5-34.5T379,552Z" />
      <glyph unicode="&#xf7;" glyph-name="gid217" horiz-adv-x="537" d="M64,302v63H473V302H64ZM268,447q-20,0-34,14.5T220,496q0,21 14,35t34,14q22,0 35.5-14T317,496q0-20-13.5-34.5T268,447Zm0-324q-20,0-34,14.5T220,172q0,21 14,35t34,14q22,0 35.5-14T317,172q0-20-13.5-34.5T268,123Z" />
      <glyph unicode="&#xf8;" glyph-name="gid98" horiz-adv-x="568" d="M75-21L29,25L495,491l46-46L75-21ZM284-10q-68,0-123.5,33t-88,89T40,237q0,68 32.5,123t88,87.5T284,480q69,0 124-32t87.5-87.5T528,237q0-70-32.5-125.5T408,23T284-10Zm0,68q50,0 88.5,23t61,64T456,237t-22.5,90.5t-61,62.5T284,413q-49,0-88-23t-61-62.5T113,237q0-52 22-92.5T196,81t88-23Z" />
      <glyph unicode="&#xf9;" glyph-name="gid112" horiz-adv-x="515" d="M257-10q-57,0-102,26.5T84.5,89T59,197V470h71V200q0-43 15.5-75T190,75t67-18q59,0 93.5,39T385,200V470h70V197q0-61-25-108T360,16T257-10Zm40,548L140,672l56,56L329,570l-32-32Z" />
      <glyph unicode="&#xfa;" glyph-name="gid109" horiz-adv-x="515" d="M257-10q-57,0-102,26.5T84.5,89T59,197V470h71V200q0-43 15.5-75T190,75t67-18q59,0 93.5,39T385,200V470h70V197q0-61-25-108T360,16T257-10ZM195,543l-32,32L296,733l56-56L195,543Z" />
      <glyph unicode="&#xfb;" glyph-name="gid110" horiz-adv-x="515" d="M257-10q-57,0-102,26.5T84.5,89T59,197V470h71V200q0-43 15.5-75T190,75t67-18q59,0 93.5,39T385,200V470h70V197q0-61-25-108T360,16T257-10ZM125,542L93,574L230,728h56L423,574l-32-32L235,678l47-1L125,542Z" />
      <glyph unicode="&#xfc;" glyph-name="gid111" horiz-adv-x="515" d="M257-10q-57,0-102,26.5T84.5,89T59,197V470h71V200q0-43 15.5-75T190,75t67-18q59,0 93.5,39T385,200V470h70V197q0-61-25-108T360,16T257-10ZM162,552q-20,0-34,14.5T114,601q0,21 14,35t34,14q22,0 35.5-14T211,601q0-20-13.5-34.5T162,552Zm190,0q-20,0-34,14.5T304,601q0,21 14,35t34,14q22,0 35.5-14T401,601q0-20-13.5-34.5T352,552Z" />
      <glyph unicode="&#xfd;" glyph-name="gid117" horiz-adv-x="510" d="M228-2L22,470H99L265,76H236L411,470h78L268-2H228ZM100-198L229,69L268-2L177-198H100Zm93,741l-32,32L294,733l56-56L193,543Z" />
      <glyph unicode="&#xfe;" glyph-name="gid102" horiz-adv-x="585" d="M314-10q-54,0-97,22T146.5,72.5T113,162V309q6,52 34,90.5T218.5,459T314,480q65,0 117-32.5t82.5-88T544,234q0-69-30-124T431.5,22.5T314-10ZM71-198V708h70V350L127,236l14-115V-198H71ZM302,57q50,0 88,22.5t60,63T472,235q0,53-22,93t-60,63t-87,23t-86.5-23T158,328t-21-93q0-52 21-92.5t58-63T302,57Z" />
      <glyph unicode="&#xff;" glyph-name="gid118" horiz-adv-x="510" d="M228-2L22,470H99L265,76H236L411,470h78L268-2H228ZM100-198L229,69L268-2L177-198H100Zm60,750q-20,0-34,14.5T112,601q0,21 14,35t34,14q22,0 35.5-14T209,601q0-20-13.5-34.5T160,552Zm190,0q-20,0-34,14.5T302,601q0,21 14,35t34,14q22,0 35.5-14T399,601q0-20-13.5-34.5T350,552Z" />
      <glyph unicode="&#x2013;" glyph-name="gid176" horiz-adv-x="545" d="M71,224v60H474V224H71Z" />
      <glyph unicode="&#x2014;" glyph-name="gid177" horiz-adv-x="843" d="M71,225v58H769V225H71Z" />
      <glyph unicode="&#x2018;" glyph-name="gid189" horiz-adv-x="246" d="M180,695L123,584l-26-6q4,9 11.5,15.5T126,600q19,0 34.5-15T176,546t-17.5-41.5T117,487q-23,0-40,17.5T60,546q0,10 3.5,23.5T78,605l59,113l43-23Z" />
      <glyph unicode="&#x2019;" glyph-name="gid190" horiz-adv-x="246" d="M67,491l57,111l25,6q-4-10-11-16t-17-6q-19,0-34.5,15T71,639q0,25 17,42t41,17q23,0 40.5-17T187,639q0-10-3.5-23.5T169,581L109,468L67,491Z" />
      <glyph unicode="&#x201a;" glyph-name="gid185" horiz-adv-x="274" d="M81-103L138,8l25,6q-4-9-11-15.5T135-8Q116-8 100.5,7.5T85,46q0,24 17,41.5T143,105q23,0 40.5-17.5T201,46q0-10-3.5-23.5T183-13L123-126L81-103Z" />
      <glyph unicode="&#x201c;" glyph-name="gid187" horiz-adv-x="410" d="M180,695L123,584l-26-6q4,9 11.5,15.5T126,600q19,0 34.5-15T176,546t-17.5-41.5T117,487q-23,0-40,17.5T60,546q0,10 3.5,23.5T78,605l59,113l43-23Zm164,0L287,584l-26-6q4,9 11.5,15.5T290,600q19,0 34.5-15T340,546t-17.5-41.5T281,487q-23,0-40,17.5T224,546q0,10 3.5,23.5T242,605l59,113l43-23Z" />
      <glyph unicode="&#x201d;" glyph-name="gid188" horiz-adv-x="410" d="M231,491l57,111l25,6q-4-10-11-16t-17-6q-19,0-34.5,15T235,639q0,25 17,42t41,17q23,0 40.5-17T351,639q0-10-3.5-23.5T333,581L273,468l-42,23ZM67,491l57,111l25,6q-4-10-11-16t-17-6q-19,0-34.5,15T71,639q0,25 17,42t41,17q23,0 40.5-17T187,639q0-10-3.5-23.5T169,581L109,468L67,491Z" />
      <glyph unicode="&#x201e;" glyph-name="gid186" horiz-adv-x="438" d="M245-102L302,9l25,6Q323,5 316-1T299-7Q280-7 264.5,8T249,46q0,25 17,42t41,17q23,0 40.5-17T365,46q0-10-3.5-23.5T347-12L287-125l-42,23ZM81-102L138,9l25,6Q159,5 152-1T135-7Q116-7 100.5,8T85,46q0,25 17,42t41,17q23,0 40.5-17T201,46q0-10-3.5-23.5T183-12L123-125L81-102Z" />
      <glyph unicode="&#x2022;" glyph-name="gid170" horiz-adv-x="318" d="M159,272q-26,0-46,12T81.5,316.5T70,362q0,24 11.5,44.5T113,439t46,12t46-12t31.5-32.5T248,362q0-25-11.5-45.5T205,284t-46-12Z" />
      <glyph unicode="&#x2039;" glyph-name="gid193" horiz-adv-x="271" d="M157,82L43,238L157,394h73L112,238L230,82H157Z" />
      <glyph unicode="&#x203a;" glyph-name="gid194" horiz-adv-x="271" d="M42,82L159,238L42,394h73L229,238L115,82H42Z" />
    </font>
</defs>
</svg>
