<?xml version="1.0" standalone="no"?>
<!DOCTYPE svg PUBLIC "-//W3C//DTD SVG 1.1//EN" "http://www.w3.org/Graphics/SVG/1.1/DTD/svg11.dtd">
<svg xmlns="http://www.w3.org/2000/svg">
  <defs>
    <font id="Outfit" horiz-adv-x="568">
      <font-face font-family="Outfit Thin" units-per-em="1000" panose-1="0 0 0 0 0 0 0 0 0 0" ascent="1000" descent="-260" alphabetic="0" />
      <glyph unicode=" " glyph-name="gid158" horiz-adv-x="208" />
      <glyph unicode="!" glyph-name="gid165" horiz-adv-x="261" d="M93,220L80,714h96L163,220H93ZM127-10Q99-10 81,9T63,56t18,46.5T127,121q29,0 47-18.5T192,56T174,9T127-10Z" />
      <glyph unicode="&quot;" glyph-name="gid195" horiz-adv-x="400" d="M253,470L232,714H332L310,470H253ZM90,470L69,714h99L147,470H90Z" />
      <glyph unicode="#" glyph-name="gid172" horiz-adv-x="640" d="M332,0L438,694h77L409,0H332ZM48,214v73H560V214H48ZM118,0L224,694h77L195,0H118ZM79,421v73H591V421H79Z" />
      <glyph unicode="$" glyph-name="gid209" horiz-adv-x="588" d="M290-10q-76,0-132.5,30T57,107l63,63q32-45 74-71t99-26q61,0 98.5,28T429,179q0,39-18,63t-48,39.5t-66,28t-71.5,27t-65.5,36T112,429T94,517q0,59 28.5,100.5t77.5,64T310,704q63,0 115-26.5T511,608l-63-63q-31,36-65,56t-75,20q-58,0-91-25t-33-73q0-35 18.5-56.5t49-36.5t66-27.5t72-27.5T456,337t48.5-59.5T523,186q0-92-63-144T290-10Zm-14-90V794h66V-100H276Z" />
      <glyph unicode="%" glyph-name="gid226" horiz-adv-x="660" d="M62,0L507,694h91L153,0H62ZM469-10q-39,0-71,19T347,59.5T328,131q0,39 19,70.5T398,252t71,19t71.5-19T592,201.5T611,131q0-40-19-71.5T541,9T469-10Zm0,71q30,0 49,19.5T537,131q0,30-19.5,49.5T469,200t-48-19.5T402,131q0-31 19-50.5T469,61ZM190,423q-38,0-70,19T69,493T50,564q0,40 18.5,71T119,685t71,19q40,0 72-19t51-50t19-71q0-39-19-71t-50.5-51T190,423Zm0,71q30,0 49,19.5T258,564t-19.5,50T190,633t-47.5-19T124,564t18.5-50.5T190,494Z" />
      <glyph unicode="&amp;" glyph-name="gid198" horiz-adv-x="659" d="M537,0L205,356q-39,42-58,80t-19,84q0,53 25,94.5t69,66T323,705q42,0 76.5-13.5t61-35.5T505,606l-65-59q-23,32-50.5,51.5T323,618q-45,0-75-27t-30-70q0-36 15-61t45-58L647,0H537ZM288-10q-69,0-121,27T86.5,91.5T58,200q0,63 34,114t99,81l43-56q-40-20-63-54.5T148,202q0-39 18-67t50.5-43.5T291,76q53,0 90,22t56,56l59-69q-20-27-52.5-48.5t-72-34T288-10Z" />
      <glyph unicode="&apos;" glyph-name="gid196" horiz-adv-x="237" d="M90,470L69,714h99L147,470H90Z" />
      <glyph unicode="(" glyph-name="gid179" horiz-adv-x="303" d="M221-116Q166-70 127-2.5T67,145T46,311T67,477t60,147.5T221,738l52-47q-71-62-109.5-160T125,311q0-121 38.5-219T273-69l-52-47Z" />
      <glyph unicode=")" glyph-name="gid180" horiz-adv-x="302" d="M82-116L30-69Q101-6 139,92t38,219q0,122-38,220T30,691l52,47q55-46 94-113.5T236,477t21-166T236,145T176-2.5T82-116Z" />
      <glyph unicode="*" glyph-name="gid171" horiz-adv-x="490" d="M228,342l-8,159L87,415L49,490l148,56L75,643l59,59l99-121l56,147l76-38L278,558l160-8l-13-82L270,509l42-154l-84-13Z" />
      <glyph unicode="+" glyph-name="gid214" horiz-adv-x="542" d="M59,294v81H483V294H59ZM230,557h83V112H230V557Z" />
      <glyph unicode="," glyph-name="gid161" horiz-adv-x="275" d="M71-110L133,9l32,8Q160,6 152.5-1T134-8Q113-8 95.5,9.5T78,53q0,29 19,48.5T145,121q26,0 46-19.5T211,53q0-11-4.5-26.5T189-13L123-138L71-110Z" />
      <glyph unicode="-" glyph-name="gid175" horiz-adv-x="461" d="M66,212v85H395V212H66Z" />
      <glyph unicode="." glyph-name="gid160" horiz-adv-x="290" d="M145-10Q117-10 98.5,9.5T80,56q0,28 18.5,46.5T145,121t46.5-18.5T210,56q0-27-18.5-46.5T145-10Z" />
      <glyph unicode="/" glyph-name="gid173" horiz-adv-x="390" d="M14-40L292,733h84L99-40H14Z" />
      <glyph unicode="0" glyph-name="gid130" horiz-adv-x="656" d="M330-10q-78,0-142.5,44T85,158.5T47,348T84.5,537T186,660.5T327,704q79,0 143-43.5T571.5,537T609,347q0-109-37.5-189.5t-101-124T330-10Zm-2,89q55,0 96.5,30.5T490,200t24,148T490,495.5t-66,90T327,616q-54,0-96-30.5t-65.5-90T142,348t23.5-148T231,109.5T328,79Z" />
      <glyph unicode="1" glyph-name="gid131" horiz-adv-x="347" d="M173,0V694h93V0H173ZM31,610v84H256V610H31Z" />
      <glyph unicode="2" glyph-name="gid132" horiz-adv-x="541" d="M33,57L289,327q39,40 61,69.5T381.5,451t9.5,52q0,53-34,83t-88,30q-53,0-93-25.5T105,512L39,567q41,68 99,102.5T272,704q64,0 111.5-25T457,609t26-105q0-43-10.5-77t-37-69.5T362,273L155,60L33,57ZM33,0V57l80,27H499V0H33Z" />
      <glyph unicode="3" glyph-name="gid133" horiz-adv-x="538" d="M247-10q-68,0-123.5,25.5T30,90l64,64q23-35 63-55.5T246,78q46,0 79.5,17.5t53,49.5T398,219q0,43-19.5,74.5T324,342t-83,17q-18,0-36-2.5T170,349l40,54q19,9 41,14t44,5q56,0 100.5-26t71-73T493,214q0-66-31.5-116.5T375,18.5T247-10ZM170,349v57L373,637l112,1L276,401L170,349ZM63,610v84H485V638l-82-28H63Z" />
      <glyph unicode="4" glyph-name="gid134" horiz-adv-x="598" d="M33,239L286,694H392L134,239H33Zm0-58v58l40,26H565V181H33ZM372,0V459h93V0H372Z" />
      <glyph unicode="5" glyph-name="gid135" horiz-adv-x="541" d="M248-10q-71,0-126.5,25.5T28,90l64,64q23-35 63.5-55.5T246,78q47,0 82.5,18t56,50.5T405,224q0,46-20,78t-53.5,48.5T258,367q-41,0-74.5-10T120,323l1,60q17,21 39,34t50,20t65,7q72,0 122-30t76.5-81T500,219q0-66-32.5-118T378,19.5T248-10ZM120,323L69,374l31,320h86L151,365l-31-42Zm-1,287l-19,84H465V610H119Z" />
      <glyph unicode="6" glyph-name="gid136" horiz-adv-x="564" d="M282-10q-69,0-123.5,32T72,108T40,228q0,92 64,183L308,694H417L208,409l-34-18q12,21 29,35.5T245,449t59,8q61,0 110.5-29t80-79.5T525,231q0-66-32.5-121t-88-87.5T282-10Zm0,88q42,0 75.5,20.5t53,55T430,231t-19.5,77.5t-53,54.5T282,383t-75.5-20t-53-54.5T134,231t19.5-78t53-55T282,78Z" />
      <glyph unicode="7" glyph-name="gid137" horiz-adv-x="525" d="M140,0L400,639l93-3L239,0H140ZM31,610v84H493V636l-41-26H31Z" />
      <glyph unicode="8" glyph-name="gid138" horiz-adv-x="550" d="M275-10q-69,0-121.5,26T72,88T43,192q0,47 18,86t53,66.5T196,384l3-27q-40,11-68,35.5t-42.5,58T74,522q0,54 26,95t71.5,64.5T275,705q59,0 104-23.5T450,617t26-95q0-38-14.5-71.5t-42-58T352,357l2,27q48-12 82.5-39.5t53-66.5T508,192q0-58-29-104T397.5,16T275-10Zm0,85q42,0 73.5,16.5t50,45.5T417,204q0,37-18.5,66t-50,45.5T275,332q-41,0-73-16.5T151.5,270T133,204q0-38 18.5-67T202,91.5T275,75Zm0,330q50,0 82,31t32,80q0,48-32,78.5T275,625q-49,0-81-30.5T162,516q0-49 32-80t81-31Z" />
      <glyph unicode="9" glyph-name="gid139" horiz-adv-x="564" d="M147,0L356,285l34,18q-12-20-29-35t-41.5-23T260,237q-60,0-110.5,29T69,346.5T39,463q0,67 33,121.5t88,87T282,704q68,0 123-32t87-85.5T524,466q0-92-64-183L256,0H147ZM282,311q42,0 75.5,20.5t53,55T430,463q0,44-19.5,78.5t-53,54.5T282,616t-75.5-20T153,541.5T133,463q0-43 20-77t54-54.5T282,311Z" />
      <glyph unicode=":" glyph-name="gid162" horiz-adv-x="271" d="M135-10Q107-10 88.5,9.5T70,55q0,29 18.5,47.5T135,121t46.5-18.5T200,55q0-26-18.5-45.5T135-10Zm0,312q-28,0-46.5,19T70,367q0,29 18.5,47.5T135,433t46.5-18.5T200,367q0-27-18.5-46T135,302Z" />
      <glyph unicode=";" glyph-name="gid163" horiz-adv-x="269" d="M66-110L128,9l31,8Q154,6 146.5-1T129-8Q108-8 90.5,9.5T73,53q0,28 19.5,48T140,121q26,0 46-19.5T206,53q0-11-4.5-26.5T184-13L117-138L66-110Zm69,412q-28,0-46,19T71,367q0,29 18,47.5T135,433t46.5-18.5T200,367q0-27-18.5-46T135,302Z" />
      <glyph unicode="&lt;" glyph-name="gid220" horiz-adv-x="542" d="M483,113L59,303v65L483,558V467L132,318v34L483,203V113Z" />
      <glyph unicode="=" glyph-name="gid218" horiz-adv-x="542" d="M59,409v81H483V409H59Zm0-230v81H483V179H59Z" />
      <glyph unicode="&gt;" glyph-name="gid219" horiz-adv-x="542" d="M59,467v91L483,368V303L59,113v90L410,352V318L59,467Z" />
      <glyph unicode="?" glyph-name="gid167" horiz-adv-x="505" d="M219,220l-1,190l27,1q35,0 61.5,15T348,467t15,58q0,33-14.5,58t-41,39T245,636q-48,0-83-24t-56-68L40,599q29,59 83.5,92T249,724q61,0 108-24.5t73-68T456,531q0-52-23.5-94.5t-66-70T266,331l39,40l-8-151H219ZM257-10q-28,0-46.5,19T192,56t18.5,46.5T257,121t46.5-18.5T322,56T303.5,9T257-10Z" />
      <glyph unicode="@" glyph-name="gid197" horiz-adv-x="750" d="M378-90q-68,0-127.5,24.5T147,3T78,106.5T53,236T78.5,365.5t70.5,104T254.5,539T384,564q92,0 162.5-42t111-115T698,239q0-43-8.5-77.5T662,97l-77,4q14,20 22.5,40.5T620,187t4,57q0,79-28.5,134.5t-82,85T385,493q-76,0-133.5-32t-89-89.5T131,235q0-78 30.5-135T248,11.5T376-20q53,0 95,14.5T545,38l50-51q-44-38-99-57.5T378-90ZM360,90q-39,0-70.5,19.5t-51,52.5T219,236t19.5,74.5t51,53T360,383q48,0 78.5-23.5T469,291V182q0-44-30-68T360,90Zm4,63q36,0 57.5,23.5T443,237q0,38-21.5,61T364,321q-33,0-55.5-23.5T286,237t22-60.5T364,153ZM476,97v59H662V97H476Zm-28,0v74l10,70l-10,67v69h65V97H448Z" />
      <glyph unicode="A" glyph-name="gid1" horiz-adv-x="696" d="M31,0L315,694h68L666,0H564L331,587h35L131,0H31ZM166,157v82H531V157H166Z" />
      <glyph unicode="B" glyph-name="gid10" horiz-adv-x="623" d="M145,0V82H355q60,0 94,35.5T483,203q0,34-15,61.5T424.5,308T358,324H145v82H344q50,0 79.5,26.5T453,509t-31,76.5T340,612H145v82H342q68,0 113.5-24.5t69-64.5T548,517q0-56-30.5-98T428,353l8,30q67-24 104.5-72.5T578,196q0-55-27-99T473.5,26.5T350,0H145ZM82,0V694h94V0H82Z" />
      <glyph unicode="C" glyph-name="gid11" horiz-adv-x="688" d="M397-10q-75,0-139,27.5T146.5,94T73,208T47,347q0,75 26,140t73.5,113.5t111,76T396,704q82,0 144-28t110-76l-65-65q-33,37-80.5,58T396,614q-55,0-101-19.5T215,539t-52.5-85T144,347t18.5-107T215,155t80-55.5T396,80q65,0 113,21.5T590,160l65-64Q607,46 542.5,18T397-10Z" />
      <glyph unicode="D" glyph-name="gid13" horiz-adv-x="740" d="M144,0V86H337q77,0 135,33.5T562.5,212T595,348q0,76-33,135t-91,92T337,608H145v86H339q76,0 140.5-26t112-73t74-110T692,347q0-74-26.5-137.5T592,99T480.5,26T341,0H144ZM82,0V694h94V0H82Z" />
      <glyph unicode="E" glyph-name="gid15" horiz-adv-x="590" d="M82,0V694h94V0H82Zm64,0V86H544V0H146Zm0,314v82H511V314H146Zm0,294v86H539V608H146Z" />
      <glyph unicode="F" glyph-name="gid20" horiz-adv-x="566" d="M82,0V694h94V0H82Zm64,305v86H508V305H146Zm0,303v86H525V608H146Z" />
      <glyph unicode="G" glyph-name="gid21" horiz-adv-x="773" d="M396-10q-73,0-136.5,27.5T148.5,94T74,208T47,348T74,487.5T149,601t112.5,76T402,704q83,0 153-32t117-92l-65-65q-33,48-87,73.5T402,614q-76,0-134.5-34t-91-94T144,348q0-79 33-139t89-94T394,81q73,0 126.5,28T603,191.5T632,325l57-41H389v86H729V356q0-121-42.5-202.5T568.5,31T396-10Z" />
      <glyph unicode="H" glyph-name="gid22" horiz-adv-x="706" d="M82,0V694h94V0H82ZM530,0V694h94V0H530ZM146,316v86H553V316H146Z" />
      <glyph unicode="I" glyph-name="gid23" horiz-adv-x="258" d="M82,0V694h94V0H82Z" />
      <glyph unicode="J" glyph-name="gid28" horiz-adv-x="495" d="M210-10q-60,0-105.5,23.5T30,77l66,61q19-28 47.5-43T207,80t62,15t42.5,44.5T327,212V694h94V217q0-69-27.5-120t-75-79T210-10Z" />
      <glyph unicode="K" glyph-name="gid29" horiz-adv-x="666" d="M511,0L161,362L504,694H626L256,338v52L636,0H511ZM82,0V694h94V0H82Z" />
      <glyph unicode="L" glyph-name="gid30" horiz-adv-x="552" d="M82,0V694h94V0H82Zm64,0V86H518V0H146Z" />
      <glyph unicode="M" glyph-name="gid31" horiz-adv-x="839" d="M82,0V694h66L442,211H397L691,694h66V0H663V529l22-6L453,142H387L155,523l21,6V0H82Z" />
      <glyph unicode="N" glyph-name="gid32" horiz-adv-x="710" d="M82,0V694h66l28-109V0H82ZM562,0L136,569l12,125L575,126L562,0Zm0,0L534,103V694h94V0H562Z" />
      <glyph unicode="O" glyph-name="gid34" horiz-adv-x="794" d="M398-10q-74,0-138,27.5t-112,77T73.5,209T47,348q0,75 26.5,139.5t74,113.5t111,76T396,704t137.5-27T645,601t75-114t27-140q0-74-27-139T645.5,94t-111-76.5T398-10Zm-2,90q75,0 131.5,34.5t89.5,95T650,348q0,58-19,106.5T578,539t-80,55.5T396,614q-74,0-130.5-34t-89-94T144,348q0-58 18.5-107.5t52-85t80-55.5T396,80Z" />
      <glyph unicode="P" glyph-name="gid42" horiz-adv-x="606" d="M145,270v82H334q39,0 69.5,16t48,45T469,482t-17.5,69t-48,45T334,612H145v82H340q64,0 114.5-26t80-73.5T564,482q0-64-29.5-111.5t-80-74T340,270H145ZM82,0V694h94V0H82Z" />
      <glyph unicode="Q" glyph-name="gid44" horiz-adv-x="817" d="M399-10q-74,0-138,27.5t-112,77T74,209T47,348q0,75 27,139.5T148.5,601t111,76T397,704t137.5-27T646,601t74.5-114T747,347q0-74-26.5-139t-74-114t-111-76.5T399-10ZM731-49L406,276l61,61L791,12L731-49ZM397,80q74,0 131,34.5t89.5,95T650,348q0,58-18.5,106.5T579,539t-80,55.5T397,614q-74,0-131-34t-89.5-94T144,348q0-58 19-107.5t52.5-85t80-55.5T397,80Z" />
      <glyph unicode="R" glyph-name="gid45" horiz-adv-x="630" d="M145,302v79H333q61,0 94,31t33,84q0,50-32.5,83T334,612H145v82H337q66,0 115-25.5T527.5,599T554,498q0-59-26.5-103T452,326.5T337,302H145ZM82,0V694h94V0H82ZM482,0L230,311l89,31L601,0H482Z" />
      <glyph unicode="S" glyph-name="gid46" horiz-adv-x="555" d="M275-10q-82,0-140,30T32,107l64,64q33-46 76-69.5T278,78q62,0 99.5,27T415,179q0,39-18,63t-48.5,39.5t-66.5,28t-72,27t-66,36T95.5,429T77,517q0,59 28.5,100.5t78,64T295,704q68,0 122-26.5T505,608l-64-64q-31,36-66.5,54T293,616q-56,0-89-24.5T171,523q0-35 18.5-56.5T238,430t66.5-27.5T377,375t66-38t48.5-59.5T510,186q0-92-63.5-144T275-10Z" />
      <glyph unicode="T" glyph-name="gid47" horiz-adv-x="625" d="M266,0V674h94V0H266ZM30,608v86H595V608H30Z" />
      <glyph unicode="U" glyph-name="gid48" horiz-adv-x="683" d="M342-10q-77,0-137.5,34.5t-95.5,95T74,257V694h94V259q0-55 23-95t62.5-62T342,80q51,0 89.5,22t61,62T515,258V694h95V256q0-77-35-137T480,24.5T342-10Z" />
      <glyph unicode="V" glyph-name="gid53" horiz-adv-x="688" d="M309,0L31,694H133L362,107H325L556,694H657L377,0H309Z" />
      <glyph unicode="W" glyph-name="gid54" horiz-adv-x="981" d="M259,0L32,694h94L306,128H279L456,694h68L701,128H675L855,694h93L722,0H655L477,565h26L326,0H259Z" />
      <glyph unicode="X" glyph-name="gid55" horiz-adv-x="691" d="M551,0L333,318H316L42,694H154L370,395h17L661,0H551ZM30,0L299,369l64-56L136,0H30ZM393,335l-63,56L544,694H650L393,335Z" />
      <glyph unicode="Y" glyph-name="gid56" horiz-adv-x="665" d="M302,282L29,694H138L358,357H309L530,694H637L362,282H302ZM286,0V344h94V0H286Z" />
      <glyph unicode="Z" glyph-name="gid58" horiz-adv-x="583" d="M39,65L431,630H541L149,65H39ZM39,0V65l80,21H534V0H39ZM60,608v86H541V630l-81-22H60Z" />
      <glyph unicode="[" glyph-name="gid183" horiz-adv-x="338" d="M79-96V714h76V-96H79Zm37,0v72H302V-96H116Zm0,739v71H302V643H116Z" />
      <glyph unicode="\" glyph-name="gid174" horiz-adv-x="390" d="M292-40L14,733H99L376-40H292Z" />
      <glyph unicode="]" glyph-name="gid184" horiz-adv-x="338" d="M183-96V714h76V-96H183ZM36-96v72H222V-96H36Zm0,739v71H222V643H36Z" />
      <glyph unicode="^" glyph-name="gid224" horiz-adv-x="453" d="M324,457L209,664h36L129,457H53L196,714h60L400,457H324Z" />
      <glyph unicode="_" glyph-name="gid178" horiz-adv-x="505" d="M20-124v78H485v-78H20Z" />
      <glyph unicode="`" glyph-name="gid239" horiz-adv-x="281" d="M200,539L40,670l71,70L241,579l-41-40Z" />
      <glyph unicode="a" glyph-name="gid59" horiz-adv-x="582" d="M268-10q-65,0-118,32.5T66.5,111T36,237T66.5,363t83,89T268,485q54,0 96.5-22.5t68.5-62T462,309V166q-3-51-28.5-91t-68-62.5T268-10Zm15,85q67,0 108,45.5T432,237q0,49-18.5,85.5t-52.5,57T282,400t-79.5-21t-54-57.5T129,238q0-48 19.5-84.5T203,96t80-21ZM426,0V128l17,116L426,359V475h91V0H426Z" />
      <glyph unicode="b" glyph-name="gid67" horiz-adv-x="582" d="M316-10q-54,0-97.5,22.5T149,75t-29,91V309q3,52 29.5,91.5t70,62T316,485q65,0 117.5-33T516,363t30-126T516,111T433.5,22.5T316-10ZM66,0V714h90V359L139,244l17-116V0H66ZM301,75q45,0 79,21t54,57.5T454,238q0,47-20,84t-54,57.5T302,400q-45,0-79-20.5T170,322t-19-85q0-47 18.5-83.5t53-57.5T301,75Z" />
      <glyph unicode="c" glyph-name="gid68" horiz-adv-x="489" d="M283-10q-70,0-126.5,33t-89,89.5T35,238q0,70 32.5,126t89,88.5T283,485q55,0 102-20.5T466,405l-60-60q-22,26-53.5,39.5T283,398q-45,0-80-20.5T148,321t-20-83t20-83t55-57t80-21q38,0 69.5,13.5T407,130l59-60q-33-38-80.5-59T283-10Z" />
      <glyph unicode="d" glyph-name="gid70" horiz-adv-x="582" d="M267-10q-66,0-118,32.5T66.5,111T36,237T66.5,363T149,452t118,33q53,0 96-22.5t69.5-62T462,309V166q-3-51-29-91T364,12.5T267-10Zm15,85q45,0 78.5,21T413,153.5T432,237q0,49-19.5,85t-53,57T281,400t-79-21t-53.5-57.5T129,238q0-48 19.5-84.5t54-57.5T282,75ZM517,0H426V128l17,116L426,359V714h91V0Z" />
      <glyph unicode="e" glyph-name="gid72" horiz-adv-x="536" d="M286-10q-71,0-128,32.5T68,111T35,238q0,70 32.5,126t88,88.5T280,485q66,0 116.5-30t79-83T504,252q0-10-1-21.5T499,204H98v75H451l-33-29q0,48-17,81.5t-48,52T278,402q-46,0-81-20t-54-56t-19-85q0-50 20-87.5t57-58T286,75q40,0 73.5,14T417,131l58-59q-34-40-83.5-61T286-10Z" />
      <glyph unicode="f" glyph-name="gid77" horiz-adv-x="399" d="M134,0V546q0,53 23,92.5T220.5,701T315,724q41,0 71-14t55-41l-59-58q-13,14-29,21.5T314,640q-43,0-66.5-25T224,546V0H134ZM17,393v82H375V393H17Z" />
      <glyph unicode="g" glyph-name="gid78" horiz-adv-x="579" d="M263-209q-73,0-129.5,27T43-106l58,59q29-37 69-56.5T265-123q73,0 115.5,38.5T423,19V137l16,107L423,350V475h90V19q0-68-31.5-119t-88-80T263-209ZM263,8Q198,8 146.5,39T65,124.5T35,247T65,368.5t81.5,85T263,485q56,0 99-22t68.5-61.5T458,309V183q-3-52-28.5-91.5T361,30T263,8Zm18,85q44,0 77.5,19T410,165.5T428,246t-18.5,80.5t-51.5,54T280,400t-79-19.5t-53.5-54T128,247t19.5-80t54-54.5T281,93Z" />
      <glyph unicode="h" glyph-name="gid79" horiz-adv-x="548" d="M402,0V277q0,54-34,89t-88,35q-36,0-64-16t-44-44t-16-64l-37,21q0,54 24,96t67,66.5T307,485t95.5-24T468,394t24-99V0H402ZM66,0V714h90V0H66Z" />
      <glyph unicode="i" glyph-name="gid80" horiz-adv-x="224" d="M67,0V475h90V0H67Zm45,570q-25,0-41,16.5T55,628q0,24 16,40.5T112,685t41-16.5T169,628q0-25-16-41.5T112,570Z" />
      <glyph unicode="j" glyph-name="gid86" horiz-adv-x="230" d="M6-209q-46,0-77.5,15T-128-151l58,59q14-17 30.5-25T0-125q30,0 52,18.5T74-51V475h90V-50q0-52-22-87T84-190.5T6-209ZM120,570q-24,0-40,16.5T64,628q0,24 16,40.5T120,685q25,0 41-16.5T177,628q0-25-16-41.5T120,570Z" />
      <glyph unicode="k" glyph-name="gid88" horiz-adv-x="498" d="M370,0L148,243L368,475H477L232,219l4,52L486,0H370ZM66,0V714h90V0H66Z" />
      <glyph unicode="l" glyph-name="gid89" horiz-adv-x="222" d="M66,0V714h90V0H66Z" />
      <glyph unicode="m" glyph-name="gid90" horiz-adv-x="855" d="M66,0V475h90V0H66ZM387,0V287q0,53-32.5,83.5T273,401q-33,0-59-14t-42-39t-16-60l-37,18q0,54 23.5,94T207,462.5T299,485q50,0 90.5-22t64-62T477,306V0H387ZM708,0V287q0,53-32.5,83.5T595,401q-33,0-59.5-14T493,348t-16-60l-51,18q3,55 29.5,94.5t68.5,62T616,485q52,0 93-22t65.5-62T799,305V0H708Z" />
      <glyph unicode="n" glyph-name="gid91" horiz-adv-x="548" d="M402,0V277q0,54-34,89t-88,35q-36,0-64-16t-44-44t-16-64l-37,21q0,54 24,96t67,66.5T307,485t95.5-27T468,387.5T492,295V0H402ZM66,0V475h90V0H66Z" />
      <glyph unicode="o" glyph-name="gid93" horiz-adv-x="566" d="M283-10q-70,0-126,33T68,112.5T35,239q0,69 33,124.5T157,452t126,33q69,0 125.5-32.5T498,364t33-125q0-70-33-126.5T408.5,23T283-10Zm0,87q45,0 80,21t55,57.5T438,239q0,46-20.5,82t-55,56.5T283,398t-80-20.5T148,321t-20-82q0-47 20-83.5T203,98t80-21Z" />
      <glyph unicode="p" glyph-name="gid101" horiz-adv-x="582" d="M316-10q-54,0-97.5,22.5T149,75t-29,91V309q3,52 29.5,91.5t70,62T316,485q65,0 117.5-33T516,363t30-126T516,111T433.5,22.5T316-10ZM66-199V475h90V350L139,235l17-116V-199H66ZM301,75q45,0 79,21t54,57.5T454,238q0,47-20,84t-54,57.5T302,400q-45,0-79-20.5T170,322t-19-85q0-47 18.5-83.5t53-57.5T301,75Z" />
      <glyph unicode="q" glyph-name="gid103" horiz-adv-x="583" d="M269-10q-66,0-119,32.5T66.5,111T36,237T66.5,363T150,452t118,33q55,0 97.5-22.5t68-62T462,309V166q-3-51-28.5-91t-68-62.5T269-10Zm14,85q67,0 108,45.5T432,237q0,49-18.5,85.5t-52,57T283,400t-79.5-21T149,321.5T129,238q0-48 20-84.5T203.5,96T283,75ZM427-199V119l16,116L427,350V475h90V-199H427Z" />
      <glyph unicode="r" glyph-name="gid104" horiz-adv-x="419" d="M66,0V475h90V0H66Zm90,271l-34,15q0,91 42,145t121,54q36,0 65-12.5T404,431l-59-61q-15,16-33,23t-42,7q-50,0-82-32t-32-97Z" />
      <glyph unicode="s" glyph-name="gid105" horiz-adv-x="427" d="M217-10q-40,0-75.5,10.5T76,30.5T24,77l58,58q26-32 60-47.5T218,72t65,14.5T306,127t-18.5,40.5t-47.5,24t-61.5,19T117,235T69.5,276T51,345t21,74.5T130.5,468T221,485q56,0 99.5-19.5T392,407l-58-58q-20,26-49.5,40T218,403q-39,0-59.5-13.5T138,352t18-37t47.5-22T265,274.5T326,249t47.5-43T392,135q0-67-47.5-106T217-10Z" />
      <glyph unicode="t" glyph-name="gid107" horiz-adv-x="368" d="M139,0V674h90V0H139ZM22,393v82H346V393H22Z" />
      <glyph unicode="u" glyph-name="gid108" horiz-adv-x="516" d="M258-10q-59,0-105.5,26.5T80,90T54,199V475h90V203q0-39 13.5-67.5T197,92t61-15q53,0 83,33.5T371,203V475h90V199q0-62-26-109T363.5,16.5T258-10Z" />
      <glyph unicode="v" glyph-name="gid113" horiz-adv-x="511" d="M229,0L11,475H111L286,74H228L404,475h96L282,0H229Z" />
      <glyph unicode="w" glyph-name="gid114" horiz-adv-x="750" d="M202,0L14,475h94L244,105H214L349,475h52L536,105H506L642,475h94L549,0H496L359,359h33L254,0H202Z" />
      <glyph unicode="x" glyph-name="gid115" horiz-adv-x="504" d="M378,0L230,208l-17,16L26,475H135L270,290l17-14L487,0H378ZM17,0L213,264l51-66L123,0H17ZM294,225l-52,64L373,475H478L294,225Z" />
      <glyph unicode="y" glyph-name="gid116" horiz-adv-x="514" d="M222-4L16,475H116L269,100H237L398,475H498L276-4H222ZM86-199L226,88L276-4L186-199H86Z" />
      <glyph unicode="z" glyph-name="gid119" horiz-adv-x="447" d="M28,49L310,426H416L134,49H28ZM28,0V49l80,33H410V0H28ZM45,393v82H416V426l-83-33H45Z" />
      <glyph unicode="{" glyph-name="gid181" horiz-adv-x="323" d="M237-96q-77,0-115,44T92,78l12,124q4,38-7,56T58,276H30v69H58q28,0 39,18.5t7,55.5L92,540q-8,87 30,130.5T237,714h50V643H245q-45,0-63.5-23T168,544l10-110q4-39-3-66.5T146.5,322T86,293v32q39-8 60.5-26T175,253.5t3-66.5L168,74q-4-53 14-75.5T245-24h42V-96H237Z" />
      <glyph unicode="|" glyph-name="gid205" horiz-adv-x="278" d="M98-130V764h82V-130H98Z" />
      <glyph unicode="}" glyph-name="gid182" horiz-adv-x="323" d="M86-96H36v72H78q45,0 63,22.5T155,74L145,187q-3,39 3.5,66.5t28,45.5T237,325V293q-39,11-60.5,29t-28,45.5T145,434l10,110q5,53-13.5,76T78,643H36v71H86q77,0 115.5-43.5T231,540L219,419q-4-37 7-55.5T265,345h28V276H265q-28,0-39-18t-7-56L231,78q8-86-30-130T86-96Z" />
      <glyph unicode="~" glyph-name="gid222" horiz-adv-x="542" d="M358,278q-28,0-49,7t-40,16t-37.5,16T189,324q-26,0-46.5-10T105,284L54,335q25,37 57.5,55.5T187,409q29,0 50.5-6.5t40.5-16T315,370t40-7q25,0 45.5,10.5T438,403l51-51q-25-36-57.5-55T358,278Z" />
      <glyph unicode="&#xa0;" glyph-name="gid159" horiz-adv-x="208" />
      <glyph unicode="&#xa1;" glyph-name="gid166" horiz-adv-x="267" d="M85-199L98,255h70l13-454H85Zm48,553q-29,0-47,19T68,419q0,29 18,47.5T133,485q28,0 46-18.5T197,419q0-27-18-46t-46-19Z" />
      <glyph unicode="&#xa2;" glyph-name="gid207" horiz-adv-x="521" d="M298,100q-70,0-126.5,32.5T82,221.5T49,348T82,473.5T171.5,562T298,595q54,0 101.5-21T480,515l-59-60q-23,26-54.5,39.5T298,508q-46,0-81-21t-55-56.5T142,348t20-83.5T217,207t81-21q37,0 69,13.5T421,240l60-60q-34-39-81.5-59.5T298,100ZM256,10V684h66V10H256Z" />
      <glyph unicode="&#xa3;" glyph-name="gid211" horiz-adv-x="619" d="M161,3V483q0,70 28,119.5T266,678t109,26q71,0 116-28t70-67l-62-62q-22,33-50.5,52T374,618q-34,0-61-15t-42.5-43T255,492V3H161ZM66,0V86H547V0H66Zm0,297v75H450V297H66Z" />
      <glyph unicode="&#xa4;" glyph-name="gid208" horiz-adv-x="564" d="M282,147q-57,0-103.5,26.5t-73.5,72T78,348q0,56 27,101t73,71.5T282,547q57,0 103.5-26T459,449.5T486,348q0-57-27-102.5t-73-72T282,147ZM101,119L53,165l88,89l47-47l-87-88ZM282,230q33,0 58,15.5T379.5,287T394,348q0,34-14.5,60T340,449t-58,15t-58.5-15.5T184,407t-14-59q0-34 14-60.5t39.5-42T282,230ZM464,119l-89,88l47,47l88-89l-46-46ZM141,441L53,528l48,48l87-88l-47-47Zm281,0l-47,47l89,88l46-48l-88-87Z" />
      <glyph unicode="&#xa5;" glyph-name="gid212" horiz-adv-x="645" d="M291,275L57,694H166L348,338H299L481,694H588L352,275H291ZM276,0V329h94V0H276ZM229,472l27-74H78v74H229ZM78,223v75H567V223H78ZM394,398l35,74H567V398H394Z" />
      <glyph unicode="&#xa6;" glyph-name="gid206" horiz-adv-x="278" d="M98,393V764h82V393H98Zm0-523V241h82V-130H98Z" />
      <glyph unicode="&#xa7;" glyph-name="gid200" horiz-adv-x="517" d="M264,139l2,67q47,0 74.5,20T368,280q0,33-20.5,52T295,362t-68.5,22.5t-68.5,29t-52.5,48T85,544q0,48 22,84t63.5,56T269,704q60,0 108-23.5T455,613l-59-59q-23,32-56.5,49T265,620q-44,0-68.5-19.5T172,549q0-31 20.5-48.5T245,471t68.5-24T382,417t52.5-48.5T455,288q0-46-25-79.5T362,157t-98-18ZM249-121q-60,0-108,24T63-29l59,59q23-33 56.5-50T252-37q45,0 69,20t24,51T324.5,83T272,113t-68,23.5T135.5,166T83,214.5T63,296q0,46 24.5,79t68,51T253,444l-2-67q-47,0-74-19.5T150,303q0-33 20.5-52T223,221t68-22.5t68.5-29t52.5-48T432,40q0-49-22-84.5t-63-56T249-121Z" />
      <glyph unicode="&#xa8;" glyph-name="gid238" horiz-adv-x="434" d="M117,555q-25,0-41,16.5T60,613q0,24 16,40.5T117,670t41-16.5T174,613q0-25-16-41.5T117,555Zm200,0q-25,0-41,16.5T260,613q0,24 16,40.5T317,670t41-16.5T374,613q0-25-16-41.5T317,555Z" />
      <glyph unicode="&#xa9;" glyph-name="gid201" horiz-adv-x="833" d="M417-10q-77,0-142,27.5T162.5,94T89,208T63,348q0,76 26,140.5t73,113t111.5,75T416,703q77,0 142.5-27T671,601t73-113t26-141q0-75-26-140T671,93T559.5,17T417-10Zm8,158q-56,0-102,26.5T250.5,246T224,348q0,56 26.5,101t73,71T426,546q43,0 81-16t66-47l-53-54q-18,20-41.5,30T426,469q-33,0-60-15.5t-42.5-43T308,348q0-36 15.5-64T366,241t60-15q30,0 54,10.5T520,266l53-54q-27-31-65.5-47.5T425,148ZM416,31q92,0 162,42T687.5,187T727,348q0,88-39.5,159.5T578,621T416,663T254,621.5t-109-113T106,348t39.5-161T255,73T416,31Z" />
      <glyph unicode="&#xaa;" glyph-name="gid128" horiz-adv-x="354" d="M159,400q-40,0-72,20T36.5,473.5T18,550t18.5,77T87,680.5T159,700q46,0 77-26.5T271,606V494q-4-39-34.5-66.5T159,400Zm13,66q35,0 56.5,23.5T250,551q0,37-21.5,60.5T172,635t-57.5-24T92,551q0-37 22.5-61T172,466Zm75-60v77l11,71l-11,69v71h71V406H247Z" />
      <glyph unicode="&#xab;" glyph-name="gid191" horiz-adv-x="458" d="M146,82L37,240L146,399h92L125,240L238,82H146Zm185,0L222,240L331,399h91L309,240L422,82H331Z" />
      <glyph unicode="&#xac;" glyph-name="gid223" horiz-adv-x="542" d="M59,344v81H483V344H59Zm341,65h83V177H400V409Z" />
      <glyph unicode="&#xae;" glyph-name="gid202" horiz-adv-x="568" d="M284,269q-63,0-111.5,29t-76,79T69,488T96,598t75.5,77.5T283,704q64,0 112.5-29T472,597t28-110T472,376.5T396,298T284,269ZM212,376V605h35V376H212Zm130,0L259,479h40l86-103H342Zm-59-78q55,0 97,25t65.5,68T469,488q0,53-23.5,95T380,650t-97,25q-54,0-95.5-25t-65-67T99,488q0-54 23.5-97t65-68T283,298ZM232,475v30h63q18,0 28,9.5T333,539t-10,25t-28,10H232v31h64q32,0 52-18t20-47t-20-47t-52-18H232Z" />
      <glyph unicode="&#xaf;" glyph-name="gid244" horiz-adv-x="440" d="M40,649H400V575H40v74Z" />
      <glyph unicode="&#xb0;" glyph-name="gid204" horiz-adv-x="394" d="M197,395q-45,0-80.5,20T61,470T41,548q0,45 20,80t55.5,55.5T197,704q46,0 81-20.5T333,628t20-80q0-43-20-78t-55-55t-81-20Zm0,71q35,0 57,24.5T276,549q0,36-22,59.5T198,632q-35,0-57.5-23.5T118,549q0-34 22.5-58.5T197,466Z" />
      <glyph unicode="&#xb1;" glyph-name="gid221" horiz-adv-x="542" d="M59,359v81H483V359H59ZM230,565h83V235H230V565ZM59,105v81H483V105H59Z" />
      <glyph unicode="&#xb2;" glyph-name="gid155" horiz-adv-x="336" d="M36,387L174,526q20,20 26.5,32.5T207,585q0,21-13.5,33.5T158,631q-20,0-36.5-11.5T88,583L34,631q23,36 56,52.5T164,700q57,0 90-30t33-82q0-31-12.5-56T230,477l-95-93l-99,3Zm0-45v45l68,22H295V342H36Z" />
      <glyph unicode="&#xb3;" glyph-name="gid156" horiz-adv-x="335" d="M150,336q-37,0-68,13T30,385l52,52q10-15 29-23.5t39-8.5q26,0 43,14t17,38q0,25-18,39t-47,14q-10,0-20.5-1.5T107,505l35,44q22,6 32.5,8t18.5,2q42,0 69.5-28.5T290,455q0-53-38-86T150,336ZM107,505v45l88,101l87-1L192,549l-85-44ZM54,627v67H282V650l-60-23H54Z" />
      <glyph unicode="&#xb4;" glyph-name="gid240" horiz-adv-x="281" d="M81,546L40,587L170,748l71-71L81,546Z" />
      <glyph unicode="&#xb5;" glyph-name="gid225" horiz-adv-x="579" d="M98-187V475h90V-187H98ZM316-10q-83,0-128,52.5T143,177l45,21q0-61 32.5-91T301,77t81,29.5T415,199V475h90V188q0-57-24-102T414.5,15.5T316-10Z" />
      <glyph unicode="&#xb6;" glyph-name="gid199" horiz-adv-x="706" d="M378,270H281q-64,0-115,26T85.5,369.5T56,482q0,64 29.5,111.5t80.5,74T281,694H657V612H286q-39,0-69.5-16t-48-45T151,482t17.5-69t48-45T286,352h92V270Zm33-370H332V694h79V-100Zm159,0H491V694h79V-100Z" />
      <glyph unicode="&#xb7;" glyph-name="gid169" horiz-adv-x="130" d="M65,298q-28,0-46.5,19.5T0,364q0,28 18.5,46.5T65,429t46.5-18.5T130,364q0-27-18.5-46.5T65,298Z" />
      <glyph unicode="&#xb8;" glyph-name="gid245" horiz-adv-x="271" d="M129-209q-35,0-63,9.5T12-173l41,49q12-12 29.5-19t40.5-7q30,0 44,9t14,23T167-94T125-84H81l31,97h68L157-59L124-32q61,2 97.5-23.5T258-120t-35-64t-94-25Z" />
      <glyph unicode="&#xb9;" glyph-name="gid154" horiz-adv-x="261" d="M100,342V694h80V342H100ZM31,627v67H175V627H31Z" />
      <glyph unicode="&#xba;" glyph-name="gid129" horiz-adv-x="344" d="M172,399q-43,0-78.5,20T38,473.5T18,550q0,43 20.5,76.5t55,53.5T172,700t78.5-19.5t55-53.5T326,550q0-42-20-76.5T251,419t-79-20Zm0,67q36,0 58.5,23.5T253,550t-23,60t-58,23q-36,0-58.5-23.5T91,550q0-37 23-60.5T172,466Z" />
      <glyph unicode="&#xbb;" glyph-name="gid192" horiz-adv-x="458" d="M221,82L334,240L221,399h91L421,240L312,82H221ZM36,82L150,240L36,399h92L237,240L128,82H36Z" />
      <glyph unicode="&#xbc;" glyph-name="gid152" horiz-adv-x="676" d="M278,302l39-36L111-14L34,60L278,302Zm94,93l-39,37L539,712l77-75L372,395ZM146,342V694h81V342H146ZM78,627v67H222V627H78ZM349,109L462,344h87L434,109H349Zm0-44v44l23,24H634V65H349ZM519-8V205h80V-8H519Z" />
      <glyph unicode="&#xbd;" glyph-name="gid151" horiz-adv-x="670" d="M278,302l39-36L111-14L34,60L278,302Zm94,93l-39,37L539,712l77-75L372,395ZM146,342V694h81V342H146ZM78,627v67H222V627H78ZM357,37L495,176q20,20 26.5,32.5T528,235q0,21-13.5,33.5T478,281q-20,0-36-11.5T409,233l-54,48q22,36 55.5,52.5T485,350q57,0 90-30t33-82q0-31-13-56t-44-55L455,34l-98,3Zm0-45V37l67,22H615V-8H357Z" />
      <glyph unicode="&#xbe;" glyph-name="gid153" horiz-adv-x="670" d="M273,306l39-33L121-14L44,60L273,306Zm131,86l-39,32L557,712l76-75L404,392ZM173,336q-37,0-68,13T52,385l52,52q10-15 29-23.5t39-8.5q27,0 44,14t17,38q0,25-18,39t-48,14q-9,0-19.5-1.5T129,505l36,44q21,6 32,8t18,2q42,0 70-28.5T313,455q0-53-38.5-86T173,336ZM129,505v45l89,101l87-1L215,549l-86-44ZM76,627v67H305V650l-61-23H76ZM325,109L438,344h87L410,109H325Zm0-44v44l23,24H609V65H325ZM494-8V205h80V-8H494Z" />
      <glyph unicode="&#xbf;" glyph-name="gid168" horiz-adv-x="489" d="M254-209q-59,0-105,25T77-115.5T51-15q0,54 23.5,95.5T141,149t99,36l-38-41l8,111h78V105H262q-53-1-85.5-32T144-9q0-32 14.5-57.5t40-40T258-121q49,0 83.5,24.5T397-29l66-55q-29-58-83-91.5T254-209Zm-4,563q-29,0-47,19t-18,47t18,46.5T250,485q28,0 46-18.5T314,420t-18-47t-46-19Z" />
      <glyph unicode="&#xc0;" glyph-name="gid6" horiz-adv-x="696" d="M31,0L315,694h68L666,0H564L331,587h35L131,0H31ZM166,157v82H531V157H166ZM388,758L228,889l71,70L429,798l-41-40Z" />
      <glyph unicode="&#xc1;" glyph-name="gid2" horiz-adv-x="696" d="M31,0L315,694h68L666,0H564L331,587h35L131,0H31ZM166,157v82H531V157H166ZM288,765l-41,41L377,967l71-71L288,765Z" />
      <glyph unicode="&#xc2;" glyph-name="gid4" horiz-adv-x="696" d="M31,0L315,694h68L666,0H564L331,587h35L131,0H31ZM166,157v82H531V157H166Zm52,607l-41,40L313,959h70L519,804l-40-40L318,898l61-1L218,764Z" />
      <glyph unicode="&#xc3;" glyph-name="gid8" horiz-adv-x="696" d="M31,0L315,694h68L666,0H564L331,587h35L131,0H31ZM166,157v82H531V157H166ZM420,767q-32,0-54.5,12T323,802t-45,11t-40-9t-29-27l-49,48q25,30 52,48t65,18q33,0 56-11t43-23t43-12q25,0 40,9.5T487,882l49-48q-26-30-52.5-48.5T420,767Z" />
      <glyph unicode="&#xc4;" glyph-name="gid5" horiz-adv-x="696" d="M31,0L315,694h68L666,0H564L331,587h35L131,0H31ZM166,157v82H531V157H166Zm82,617q-25,0-41,16.5T191,832q0,24 16,40.5T248,889t41-16.5T305,832q0-25-16-41.5T248,774Zm200,0q-25,0-41,16.5T391,832q0,24 16,40.5T448,889t41-16.5T505,832q0-25-16-41.5T448,774Z" />
      <glyph unicode="&#xc5;" glyph-name="gid7" horiz-adv-x="696" d="M31,0L315,694h68L666,0H564L331,587h35L131,0H31ZM166,157v82H531V157H166ZM349,659q-35,0-62.5,16t-43,42.5T228,777q0,34 15.5,61t43,42.5T349,896q34,0 60.5-15.5t42-42.5T467,778q0-34-15.5-61t-42-42.5T349,659Zm0,65q21,0 36,15.5T400,778t-15,38t-36,15q-24,0-38.5-15.5T296,778q0-23 14.5-38.5T349,724Z" />
      <glyph unicode="&#xc6;" glyph-name="gid9" horiz-adv-x="973" d="M31,0L315,694H570V608H374L131,0H31ZM170,245v82H531V245H170ZM559,0V86H928V0H559ZM495,0V694h94V0H495Zm62,314v82H895V314H557Zm2,294v86H922V608H559Z" />
      <glyph unicode="&#xc7;" glyph-name="gid12" horiz-adv-x="688" d="M397-10q-75,0-139,27.5T146.5,94T73,208T47,347q0,75 26,140t73.5,113.5t111,76T396,704q82,0 144-28t110-76l-65-65q-33,37-80.5,58T396,614q-55,0-101-19.5T215,539t-52.5-85T144,347t18.5-107T215,155t80-55.5T396,80q65,0 113,21.5T590,160l65-64Q607,46 542.5,18T397-10ZM361-209q-35,0-63,9.5T244-173l41,49q12-12 29.5-19t40.5-7q30,0 44,9t14,23T399-94T357-84H313l31,97h68L389-59L356-32q61,2 97.5-23.5T490-120t-35-64t-94-25Z" />
      <glyph unicode="&#xc8;" glyph-name="gid19" horiz-adv-x="590" d="M82,0V694h94V0H82Zm64,0V86H544V0H146Zm0,314v82H511V314H146Zm0,294v86H539V608H146ZM355,758L195,889l71,70L396,798l-41-40Z" />
      <glyph unicode="&#xc9;" glyph-name="gid16" horiz-adv-x="590" d="M82,0V694h94V0H82Zm64,0V86H544V0H146Zm0,314v82H511V314H146Zm0,294v86H539V608H146ZM256,765l-41,41L345,967l71-71L256,765Z" />
      <glyph unicode="&#xca;" glyph-name="gid17" horiz-adv-x="590" d="M82,0V694h94V0H82Zm64,0V86H544V0H146Zm0,314v82H511V314H146Zm0,294v86H539V608H146Zm39,156l-41,40L280,959h70L486,804l-40-40L285,898l61-1L185,764Z" />
      <glyph unicode="&#xcb;" glyph-name="gid18" horiz-adv-x="590" d="M82,0V694h94V0H82Zm64,0V86H544V0H146Zm0,314v82H511V314H146Zm0,294v86H539V608H146Zm70,166q-25,0-41,16.5T159,832q0,24 16,40.5T216,889t41-16.5T273,832q0-25-16-41.5T216,774Zm200,0q-25,0-41,16.5T359,832q0,24 16,40.5T416,889t41-16.5T473,832q0-25-16-41.5T416,774Z" />
      <glyph unicode="&#xcc;" glyph-name="gid27" horiz-adv-x="258" d="M82,0V694h94V0H82Zm87,758L9,889l71,70L210,798l-41-40Z" />
      <glyph unicode="&#xcd;" glyph-name="gid24" horiz-adv-x="258" d="M82,0V694h94V0H82ZM70,765L29,806L159,967l71-71L70,765Z" />
      <glyph unicode="&#xce;" glyph-name="gid25" horiz-adv-x="258" d="M82,0V694h94V0H82ZM-1,764l-41,40L94,959h70L300,804l-40-40L99,898l61-1L-1,764Z" />
      <glyph unicode="&#xcf;" glyph-name="gid26" horiz-adv-x="258" d="M82,0V694h94V0H82ZM30,774q-25,0-41,16.5T-27,832q0,24 16,40.5T30,889t41-16.5T87,832q0-25-16-41.5T30,774Zm200,0q-25,0-41,16.5T173,832q0,24 16,40.5T230,889t41-16.5T287,832q0-25-16-41.5T230,774Z" />
      <glyph unicode="&#xd0;" glyph-name="gid14" horiz-adv-x="755" d="M22,391H394V312H22v79ZM159,0V86H352q77,0 135,33.5T577.5,212T610,348q0,76-33,135t-91,92T352,608H160v86H354q76,0 140.5-26t112-73t74-110T707,347q0-74-26.5-137.5T607,99T495.5,26T356,0H159ZM97,0V694h94V0H97Z" />
      <glyph unicode="&#xd1;" glyph-name="gid33" horiz-adv-x="710" d="M82,0V694h66l28-109V0H82ZM562,0L136,569l12,125L575,126L562,0Zm0,0L534,103V694h94V0H562ZM428,767q-32,0-54.5,12T331,802t-45,11t-40-9t-29-27l-49,48q25,30 52,48t65,18q33,0 56-11t43-23t43-12q25,0 40,9.5T495,882l49-48q-26-30-52.5-48.5T428,767Z" />
      <glyph unicode="&#xd2;" glyph-name="gid38" horiz-adv-x="794" d="M398-10q-74,0-138,27.5t-112,77T73.5,209T47,348q0,75 26.5,139.5t74,113.5t111,76T396,704t137.5-27T645,601t75-114t27-140q0-74-27-139T645.5,94t-111-76.5T398-10Zm-2,90q75,0 131.5,34.5t89.5,95T650,348q0,58-19,106.5T578,539t-80,55.5T396,614q-74,0-130.5-34t-89-94T144,348q0-58 18.5-107.5t52-85t80-55.5T396,80Zm41,678L277,889l71,70L478,798l-41-40Z" />
      <glyph unicode="&#xd3;" glyph-name="gid35" horiz-adv-x="794" d="M398-10q-74,0-138,27.5t-112,77T73.5,209T47,348q0,75 26.5,139.5t74,113.5t111,76T396,704t137.5-27T645,601t75-114t27-140q0-74-27-139T645.5,94t-111-76.5T398-10Zm-2,90q75,0 131.5,34.5t89.5,95T650,348q0,58-19,106.5T578,539t-80,55.5T396,614q-74,0-130.5-34t-89-94T144,348q0-58 18.5-107.5t52-85t80-55.5T396,80ZM337,765l-41,41L426,967l71-71L337,765Z" />
      <glyph unicode="&#xd4;" glyph-name="gid36" horiz-adv-x="794" d="M398-10q-74,0-138,27.5t-112,77T73.5,209T47,348q0,75 26.5,139.5t74,113.5t111,76T396,704t137.5-27T645,601t75-114t27-140q0-74-27-139T645.5,94t-111-76.5T398-10Zm-2,90q75,0 131.5,34.5t89.5,95T650,348q0,58-19,106.5T578,539t-80,55.5T396,614q-74,0-130.5-34t-89-94T144,348q0-58 18.5-107.5t52-85t80-55.5T396,80ZM267,764l-41,40L362,959h70L568,804l-40-40L367,898l61-1L267,764Z" />
      <glyph unicode="&#xd5;" glyph-name="gid40" horiz-adv-x="794" d="M398-10q-74,0-138,27.5t-112,77T73.5,209T47,348q0,75 26.5,139.5t74,113.5t111,76T396,704t137.5-27T645,601t75-114t27-140q0-74-27-139T645.5,94t-111-76.5T398-10Zm-2,90q75,0 131.5,34.5t89.5,95T650,348q0,58-19,106.5T578,539t-80,55.5T396,614q-74,0-130.5-34t-89-94T144,348q0-58 18.5-107.5t52-85t80-55.5T396,80Zm73,687q-32,0-54.5,12T372,802t-45,11t-40-9t-29-27l-49,48q25,30 52,48t65,18q33,0 56-11t43-23t43-12q25,0 40,9.5T536,882l49-48q-26-30-52.5-48.5T469,767Z" />
      <glyph unicode="&#xd6;" glyph-name="gid37" horiz-adv-x="794" d="M398-10q-74,0-138,27.5t-112,77T73.5,209T47,348q0,75 26.5,139.5t74,113.5t111,76T396,704t137.5-27T645,601t75-114t27-140q0-74-27-139T645.5,94t-111-76.5T398-10Zm-2,90q75,0 131.5,34.5t89.5,95T650,348q0,58-19,106.5T578,539t-80,55.5T396,614q-74,0-130.5-34t-89-94T144,348q0-58 18.5-107.5t52-85t80-55.5T396,80ZM297,774q-25,0-41,16.5T240,832q0,24 16,40.5T297,889t41-16.5T354,832q0-25-16-41.5T297,774Zm200,0q-25,0-41,16.5T440,832q0,24 16,40.5T497,889t41-16.5T554,832q0-25-16-41.5T497,774Z" />
      <glyph unicode="&#xd7;" glyph-name="gid216" horiz-adv-x="542" d="M123,127L64,186L420,542l59-59L123,127Zm289,7L70,476l59,59L471,193l-59-59Z" />
      <glyph unicode="&#xd8;" glyph-name="gid39" horiz-adv-x="794" d="M682,694l62-62L112,0L50,62L682,694ZM398-10q-74,0-138,27.5t-112,77T73,209T46,348q0,75 27,139.5T147.5,601t111,76T396,704t137.5-27T645,601t74.5-114T746,347q0-74-26.5-139t-74-114t-111-76.5T398-10Zm-2,90q74,0 131,34.5t89.5,95T649,348q0,58-18.5,106.5T578,539t-80,55.5T396,614q-74,0-131-34t-89.5-94T143,348q0-58 19-107.5t52.5-85t80-55.5T396,80Z" />
      <glyph unicode="&#xd9;" glyph-name="gid52" horiz-adv-x="683" d="M342-10q-77,0-137.5,34.5t-95.5,95T74,257V694h94V259q0-55 23-95t62.5-62T342,80q51,0 89.5,22t61,62T515,258V694h95V256q0-77-35-137T480,24.5T342-10Zm39,768L221,889l71,70L422,798l-41-40Z" />
      <glyph unicode="&#xda;" glyph-name="gid49" horiz-adv-x="683" d="M342-10q-77,0-137.5,34.5t-95.5,95T74,257V694h94V259q0-55 23-95t62.5-62T342,80q51,0 89.5,22t61,62T515,258V694h95V256q0-77-35-137T480,24.5T342-10ZM282,765l-41,41L371,967l71-71L282,765Z" />
      <glyph unicode="&#xdb;" glyph-name="gid50" horiz-adv-x="683" d="M342-10q-77,0-137.5,34.5t-95.5,95T74,257V694h94V259q0-55 23-95t62.5-62T342,80q51,0 89.5,22t61,62T515,258V694h95V256q0-77-35-137T480,24.5T342-10ZM211,764l-41,40L306,959h70L512,804l-40-40L311,898l61-1L211,764Z" />
      <glyph unicode="&#xdc;" glyph-name="gid51" horiz-adv-x="683" d="M342-10q-77,0-137.5,34.5t-95.5,95T74,257V694h94V259q0-55 23-95t62.5-62T342,80q51,0 89.5,22t61,62T515,258V694h95V256q0-77-35-137T480,24.5T342-10ZM242,774q-25,0-41,16.5T185,832q0,24 16,40.5T242,889t41-16.5T299,832q0-25-16-41.5T242,774Zm200,0q-25,0-41,16.5T385,832q0,24 16,40.5T442,889t41-16.5T499,832q0-25-16-41.5T442,774Z" />
      <glyph unicode="&#xdd;" glyph-name="gid57" horiz-adv-x="665" d="M302,282L29,694H138L358,357H309L530,694H637L362,282H302ZM286,0V344h94V0H286ZM273,765l-41,41L362,967l71-71L273,765Z" />
      <glyph unicode="&#xde;" glyph-name="gid43" horiz-adv-x="606" d="M145,143v83H334q39,0 69.5,15.5t48,44.5T469,355t-17.5,69.5t-48,45T334,485H145v82H340q64,0 114.5-26t80-73.5T564,355q0-64-29.5-111.5t-80-74T340,143H145ZM82,0V694h94V0H82Z" />
      <glyph unicode="&#xdf;" glyph-name="gid106" horiz-adv-x="573" d="M323-10q-46,0-78,12T188,38l54,68q14-14 34.5-22.5T326,75q34,0 60,15.5t40.5,44T441,200t-17,66t-46.5,46.5T310,330H250v79h35q32,0 56,15t37,42t13,61q0,32-14,57t-39.5,40T277,639q-53,0-87-31.5T156,524V0H66V524q0,56 27,101.5t74,72T277,724q62,0 107.5-26T455,629t25-96q0-64-35.5-108.5T349,365l7,35q55-5 96.5-31.5t64.5-70T540,198q0-45-16-83T479,49T410.5,5.5T323-10Z" />
      <glyph unicode="&#xe0;" glyph-name="gid63" horiz-adv-x="582" d="M268-10q-65,0-118,32.5T66.5,111T36,237T66.5,363t83,89T268,485q54,0 96.5-22.5t68.5-62T462,309V166q-3-51-28.5-91t-68-62.5T268-10Zm15,85q67,0 108,45.5T432,237q0,49-18.5,85.5t-52.5,57T282,400t-79.5-21t-54-57.5T129,238q0-48 19.5-84.5T203,96t80-21ZM426,0V128l17,116L426,359V475h91V0H426ZM333,539L173,670l71,70L374,579l-41-40Z" />
      <glyph unicode="&#xe1;" glyph-name="gid60" horiz-adv-x="582" d="M268-10q-65,0-118,32.5T66.5,111T36,237T66.5,363t83,89T268,485q54,0 96.5-22.5t68.5-62T462,309V166q-3-51-28.5-91t-68-62.5T268-10Zm15,85q67,0 108,45.5T432,237q0,49-18.5,85.5t-52.5,57T282,400t-79.5-21t-54-57.5T129,238q0-48 19.5-84.5T203,96t80-21ZM426,0V128l17,116L426,359V475h91V0H426ZM234,546l-41,41L323,748l71-71L234,546Z" />
      <glyph unicode="&#xe2;" glyph-name="gid61" horiz-adv-x="582" d="M268-10q-65,0-118,32.5T66.5,111T36,237T66.5,363t83,89T268,485q54,0 96.5-22.5t68.5-62T462,309V166q-3-51-28.5-91t-68-62.5T268-10Zm15,85q67,0 108,45.5T432,237q0,49-18.5,85.5t-52.5,57T282,400t-79.5-21t-54-57.5T129,238q0-48 19.5-84.5T203,96t80-21ZM426,0V128l17,116L426,359V475h91V0H426ZM163,545l-41,40L258,740h70L464,585l-40-40L263,679l61-1L163,545Z" />
      <glyph unicode="&#xe3;" glyph-name="gid65" horiz-adv-x="582" d="M268-10q-65,0-118,32.5T66.5,111T36,237T66.5,363t83,89T268,485q54,0 96.5-22.5t68.5-62T462,309V166q-3-51-28.5-91t-68-62.5T268-10Zm15,85q67,0 108,45.5T432,237q0,49-18.5,85.5t-52.5,57T282,400t-79.5-21t-54-57.5T129,238q0-48 19.5-84.5T203,96t80-21ZM426,0V128l17,116L426,359V475h91V0H426ZM366,548q-32,0-54.5,12T269,583t-45,11t-40-9t-29-27l-49,48q25,30 52,48t65,18q33,0 56-11t43-23t43-12q25,0 40,9.5T433,663l49-48q-26-30-52.5-48.5T366,548Z" />
      <glyph unicode="&#xe4;" glyph-name="gid62" horiz-adv-x="582" d="M268-10q-65,0-118,32.5T66.5,111T36,237T66.5,363t83,89T268,485q54,0 96.5-22.5t68.5-62T462,309V166q-3-51-28.5-91t-68-62.5T268-10Zm15,85q67,0 108,45.5T432,237q0,49-18.5,85.5t-52.5,57T282,400t-79.5-21t-54-57.5T129,238q0-48 19.5-84.5T203,96t80-21ZM426,0V128l17,116L426,359V475h91V0H426ZM194,555q-25,0-41,16.5T137,613q0,24 16,40.5T194,670t41-16.5T251,613q0-25-16-41.5T194,555Zm200,0q-25,0-41,16.5T337,613q0,24 16,40.5T394,670t41-16.5T451,613q0-25-16-41.5T394,555Z" />
      <glyph unicode="&#xe5;" glyph-name="gid64" horiz-adv-x="582" d="M268-10q-65,0-118,32.5T66.5,111T36,237T66.5,363t83,89T268,485q54,0 96.5-22.5t68.5-62T462,309V166q-3-51-28.5-91t-68-62.5T268-10Zm15,85q67,0 108,45.5T432,237q0,49-18.5,85.5t-52.5,57T282,400t-79.5-21t-54-57.5T129,238q0-48 19.5-84.5T203,96t80-21ZM426,0V128l17,116L426,359V475h91V0H426ZM295,532q-35,0-62.5,16t-43,42.5T174,650q0,34 15.5,61t43,42.5T295,769q34,0 60.5-15.5t42-42.5T413,651q0-34-15.5-61t-42-42.5T295,532Zm0,65q21,0 36,15.5T346,651t-15,38t-36,15q-24,0-38.5-15.5T242,651q0-23 14.5-38.5T295,597Z" />
      <glyph unicode="&#xe6;" glyph-name="gid66" horiz-adv-x="933" d="M683-10q-71,0-128,32.5T465,111T432,238q0,70 32.5,126t88,88.5T677,485q66,0 116.5-30t79-83T901,252q0-10-1-21.5T896,204H495v75H848l-33-29q0,48-17,81.5t-48,52T675,402q-46,0-81-20t-54-56t-19-85q0-50 20-87.5t57-58T683,75q40,0 73.5,14T814,131l58-59q-34-40-83.5-61T683-10ZM268-10q-65,0-118,32.5T66.5,111T36,237T66.5,363t83,89T268,485q54,0 96.5-22.5t68.5-62T462,309V166q-3-51-28.5-91t-68-62.5T268-10Zm15,85q67,0 108,45.5T432,237q0,49-18.5,85.5t-52.5,57T282,400t-79.5-21t-54-57.5T129,238q0-48 19.5-84.5T203,96t80-21ZM426,0V128l17,116L426,359V475h91V0H426Z" />
      <glyph unicode="&#xe7;" glyph-name="gid69" horiz-adv-x="489" d="M283-10q-70,0-126.5,33t-89,89.5T35,238q0,70 32.5,126t89,88.5T283,485q55,0 102-20.5T466,405l-60-60q-22,26-53.5,39.5T283,398q-45,0-80-20.5T148,321t-20-83t20-83t55-57t80-21q38,0 69.5,13.5T407,130l59-60q-33-38-80.5-59T283-10ZM251-209q-35,0-63,9.5T134-173l41,49q12-12 29.5-19t40.5-7q30,0 44,9t14,23T289-94T247-84H203l31,97h68L279-59L246-32q61,2 97.5-23.5T380-120t-35-64t-94-25Z" />
      <glyph unicode="&#xe8;" glyph-name="gid76" horiz-adv-x="536" d="M286-10q-71,0-128,32.5T68,111T35,238q0,70 32.5,126t88,88.5T280,485q66,0 116.5-30t79-83T504,252q0-10-1-21.5T499,204H98v75H451l-33-29q0,48-17,81.5t-48,52T278,402q-46,0-81-20t-54-56t-19-85q0-50 20-87.5t57-58T286,75q40,0 73.5,14T417,131l58-59q-34-40-83.5-61T286-10Zm33,549L159,670l71,70L360,579l-41-40Z" />
      <glyph unicode="&#xe9;" glyph-name="gid73" horiz-adv-x="536" d="M286-10q-71,0-128,32.5T68,111T35,238q0,70 32.5,126t88,88.5T280,485q66,0 116.5-30t79-83T504,252q0-10-1-21.5T499,204H98v75H451l-33-29q0,48-17,81.5t-48,52T278,402q-46,0-81-20t-54-56t-19-85q0-50 20-87.5t57-58T286,75q40,0 73.5,14T417,131l58-59q-34-40-83.5-61T286-10ZM219,546l-41,41L308,748l71-71L219,546Z" />
      <glyph unicode="&#xea;" glyph-name="gid74" horiz-adv-x="536" d="M286-10q-71,0-128,32.5T68,111T35,238q0,70 32.5,126t88,88.5T280,485q66,0 116.5-30t79-83T504,252q0-10-1-21.5T499,204H98v75H451l-33-29q0,48-17,81.5t-48,52T278,402q-46,0-81-20t-54-56t-19-85q0-50 20-87.5t57-58T286,75q40,0 73.5,14T417,131l58-59q-34-40-83.5-61T286-10ZM149,545l-41,40L244,740h70L450,585l-40-40L249,679l61-1L149,545Z" />
      <glyph unicode="&#xeb;" glyph-name="gid75" horiz-adv-x="536" d="M286-10q-71,0-128,32.5T68,111T35,238q0,70 32.5,126t88,88.5T280,485q66,0 116.5-30t79-83T504,252q0-10-1-21.5T499,204H98v75H451l-33-29q0,48-17,81.5t-48,52T278,402q-46,0-81-20t-54-56t-19-85q0-50 20-87.5t57-58T286,75q40,0 73.5,14T417,131l58-59q-34-40-83.5-61T286-10ZM179,555q-25,0-41,16.5T122,613q0,24 16,40.5T179,670t41-16.5T236,613q0-25-16-41.5T179,555Zm200,0q-25,0-41,16.5T322,613q0,24 16,40.5T379,670t41-16.5T436,613q0-25-16-41.5T379,555Z" />
      <glyph unicode="&#xec;" glyph-name="gid85" horiz-adv-x="222" d="M66,0V475h90V0H66Zm85,539L-9,670l71,70L192,579l-41-40Z" />
      <glyph unicode="&#xed;" glyph-name="gid82" horiz-adv-x="222" d="M66,0V475h90V0H66ZM51,546L10,587L140,748l71-71L51,546Z" />
      <glyph unicode="&#xee;" glyph-name="gid83" horiz-adv-x="222" d="M66,0V475h90V0H66ZM-19,545l-41,40L76,740h70L282,585l-40-40L81,679l61-1L-19,545Z" />
      <glyph unicode="&#xef;" glyph-name="gid84" horiz-adv-x="222" d="M66,0V475h90V0H66ZM11,555q-25,0-41,16.5T-46,613q0,24 16,40.5T11,670t41-16.5T68,613q0-25-16-41.5T11,555Zm200,0q-25,0-41,16.5T154,613q0,24 16,40.5T211,670t41-16.5T268,613q0-25-16-41.5T211,555Z" />
      <glyph unicode="&#xf0;" glyph-name="gid71" horiz-adv-x="564" d="M283-10q-68,0-122.5,32.5T73,110T40,231q0,67 30,117.5T150,428t111,29q35,0 59.5-8t41-22.5T390,391l-34,18L147,694H257L461,411q64-91 64-183q0-66-32-120T406,22T283-10Zm0,88q42,0 75.5,20T411,153t19,78t-19,77.5T358.5,363T283,383q-41,0-75-20t-54-54.5T134,231t20-77.5t53.5-55T283,78ZM114,496L88,561L421,684l25-65L114,496Z" />
      <glyph unicode="&#xf1;" glyph-name="gid92" horiz-adv-x="548" d="M402,0V277q0,54-34,89t-88,35q-36,0-64-16t-44-44t-16-64l-37,21q0,54 24,96t67,66.5T307,485t95.5-27T468,387.5T492,295V0H402ZM66,0V475h90V0H66ZM347,548q-32,0-54.5,12T250,583t-45,11t-40-9t-29-27L87,606q25,30 52,48t65,18q33,0 56-11t43-23t43-12q25,0 40,9.5T414,663l49-48q-26-30-52.5-48.5T347,548Z" />
      <glyph unicode="&#xf2;" glyph-name="gid97" horiz-adv-x="566" d="M283-10q-70,0-126,33T68,112.5T35,239q0,69 33,124.5T157,452t126,33q69,0 125.5-32.5T498,364t33-125q0-70-33-126.5T408.5,23T283-10Zm0,87q45,0 80,21t55,57.5T438,239q0,46-20.5,82t-55,56.5T283,398t-80-20.5T148,321t-20-82q0-47 20-83.5T203,98t80-21Zm40,462L163,670l71,70L364,579l-41-40Z" />
      <glyph unicode="&#xf3;" glyph-name="gid94" horiz-adv-x="566" d="M283-10q-70,0-126,33T68,112.5T35,239q0,69 33,124.5T157,452t126,33q69,0 125.5-32.5T498,364t33-125q0-70-33-126.5T408.5,23T283-10Zm0,87q45,0 80,21t55,57.5T438,239q0,46-20.5,82t-55,56.5T283,398t-80-20.5T148,321t-20-82q0-47 20-83.5T203,98t80-21ZM224,546l-41,41L313,748l71-71L224,546Z" />
      <glyph unicode="&#xf4;" glyph-name="gid95" horiz-adv-x="566" d="M283-10q-70,0-126,33T68,112.5T35,239q0,69 33,124.5T157,452t126,33q69,0 125.5-32.5T498,364t33-125q0-70-33-126.5T408.5,23T283-10Zm0,87q45,0 80,21t55,57.5T438,239q0,46-20.5,82t-55,56.5T283,398t-80-20.5T148,321t-20-82q0-47 20-83.5T203,98t80-21ZM153,545l-41,40L248,740h70L454,585l-40-40L253,679l61-1L153,545Z" />
      <glyph unicode="&#xf5;" glyph-name="gid99" horiz-adv-x="566" d="M283-10q-70,0-126,33T68,112.5T35,239q0,69 33,124.5T157,452t126,33q69,0 125.5-32.5T498,364t33-125q0-70-33-126.5T408.5,23T283-10Zm0,87q45,0 80,21t55,57.5T438,239q0,46-20.5,82t-55,56.5T283,398t-80-20.5T148,321t-20-82q0-47 20-83.5T203,98t80-21Zm73,471q-32,0-54.5,12T259,583t-45,11t-40-9t-29-27L96,606q25,30 52,48t65,18q33,0 56-11t43-23t43-12q25,0 40,9.5T423,663l49-48q-26-30-52.5-48.5T356,548Z" />
      <glyph unicode="&#xf6;" glyph-name="gid96" horiz-adv-x="566" d="M283-10q-70,0-126,33T68,112.5T35,239q0,69 33,124.5T157,452t126,33q69,0 125.5-32.5T498,364t33-125q0-70-33-126.5T408.5,23T283-10Zm0,87q45,0 80,21t55,57.5T438,239q0,46-20.5,82t-55,56.5T283,398t-80-20.5T148,321t-20-82q0-47 20-83.5T203,98t80-21ZM184,555q-25,0-41,16.5T127,613q0,24 16,40.5T184,670t41-16.5T241,613q0-25-16-41.5T184,555Zm200,0q-25,0-41,16.5T327,613q0,24 16,40.5T384,670t41-16.5T441,613q0-25-16-41.5T384,555Z" />
      <glyph unicode="&#xf7;" glyph-name="gid217" horiz-adv-x="542" d="M59,294v81H483V294H59ZM271,441q-24,0-40,17t-16,41q0,25 16,41.5T271,557q25,0 41-16.5T328,499q0-24-16-41t-41-17Zm0-328q-24,0-40,16.5T215,171q0,24 16,40.5T271,228q25,0 41-16.5T328,171q0-25-16-41.5T271,113Z" />
      <glyph unicode="&#xf8;" glyph-name="gid98" horiz-adv-x="566" d="M80-25L21,34L487,500l59-59L80-25ZM283-10q-70,0-126,33T68,112.5T35,239q0,69 33,124.5T157,452t126,33q69,0 125.5-32.5T498,364t33-125q0-70-33-126.5T408.5,23T283-10Zm0,87q45,0 80,21t55,57.5T438,239q0,46-20.5,82t-55,56.5T283,398t-80-20.5T148,321t-20-82q0-47 20-83.5T203,98t80-21Z" />
      <glyph unicode="&#xf9;" glyph-name="gid112" horiz-adv-x="516" d="M258-10q-59,0-105.5,26.5T80,90T54,199V475h90V203q0-39 13.5-67.5T197,92t61-15q53,0 83,33.5T371,203V475h90V199q0-62-26-109T363.5,16.5T258-10Zm40,549L138,670l71,70L339,579l-41-40Z" />
      <glyph unicode="&#xfa;" glyph-name="gid109" horiz-adv-x="516" d="M258-10q-59,0-105.5,26.5T80,90T54,199V475h90V203q0-39 13.5-67.5T197,92t61-15q53,0 83,33.5T371,203V475h90V199q0-62-26-109T363.5,16.5T258-10ZM199,546l-41,41L288,748l71-71L199,546Z" />
      <glyph unicode="&#xfb;" glyph-name="gid110" horiz-adv-x="516" d="M258-10q-59,0-105.5,26.5T80,90T54,199V475h90V203q0-39 13.5-67.5T197,92t61-15q53,0 83,33.5T371,203V475h90V199q0-62-26-109T363.5,16.5T258-10ZM128,545L87,585L223,740h70L429,585l-40-40L228,679l61-1L128,545Z" />
      <glyph unicode="&#xfc;" glyph-name="gid111" horiz-adv-x="516" d="M258-10q-59,0-105.5,26.5T80,90T54,199V475h90V203q0-39 13.5-67.5T197,92t61-15q53,0 83,33.5T371,203V475h90V199q0-62-26-109T363.5,16.5T258-10ZM159,555q-25,0-41,16.5T102,613q0,24 16,40.5T159,670t41-16.5T216,613q0-25-16-41.5T159,555Zm200,0q-25,0-41,16.5T302,613q0,24 16,40.5T359,670t41-16.5T416,613q0-25-16-41.5T359,555Z" />
      <glyph unicode="&#xfd;" glyph-name="gid117" horiz-adv-x="514" d="M222-4L16,475H116L269,100H237L398,475H498L276-4H222ZM86-199L226,88L276-4L186-199H86ZM197,546l-41,41L286,748l71-71L197,546Z" />
      <glyph unicode="&#xfe;" glyph-name="gid102" horiz-adv-x="582" d="M316-10q-54,0-97.5,22.5T149,75t-29,91V309q3,52 29.5,91.5t70,62T316,485q65,0 117.5-33T516,363t30-126T516,111T433.5,22.5T316-10ZM66-199V714h90V350L139,235l17-116V-199H66ZM301,75q45,0 79.5,21t54,57.5T454,238q0,47-19.5,84t-54,57.5T302,400q-45,0-79-20.5T170,322t-19-85q0-47 18.5-83.5t53-57.5T301,75Z" />
      <glyph unicode="&#xff;" glyph-name="gid118" horiz-adv-x="514" d="M222-4L16,475H116L269,100H237L398,475H498L276-4H222ZM86-199L226,88L276-4L186-199H86Zm71,754q-25,0-41,16.5T100,613q0,24 16,40.5T157,670t41-16.5T214,613q0-25-16-41.5T157,555Zm200,0q-25,0-41,16.5T300,613q0,24 16,40.5T357,670t41-16.5T414,613q0-25-16-41.5T357,555Z" />
      <glyph unicode="&#x2013;" glyph-name="gid176" horiz-adv-x="549" d="M66,216v77H483V216H66Z" />
      <glyph unicode="&#x2014;" glyph-name="gid177" horiz-adv-x="852" d="M66,217v74H780V217H66Z" />
      <glyph unicode="&#x2018;" glyph-name="gid189" horiz-adv-x="248" d="M191,695L129,576l-31-8q5,11 12.5,18t17.5,7q21,0 38.5-17T184,532t-19.5-47.5T118,464T71,484T51,532q0,12 5,27.5T73,599l67,124l51-28Z" />
      <glyph unicode="&#x2019;" glyph-name="gid190" horiz-adv-x="249" d="M58,473l62,119l32,8q-5-11-12.5-18T121,575q-21,0-38.5,17.5T65,636q0,28 19.5,48T132,704q26,0 46-20t20-48q0-11-4.5-26.5T176,569L110,445L58,473Z" />
      <glyph unicode="&#x201a;" glyph-name="gid185" horiz-adv-x="275" d="M71-110L133,9l32,8Q160,6 152.5-1T134-8Q113-8 95.5,9.5T78,53q0,29 19,48.5T145,121q26,0 46-19.5T211,53q0-11-4.5-26.5T189-13L123-138L71-110Z" />
      <glyph unicode="&#x201c;" glyph-name="gid187" horiz-adv-x="432" d="M191,695L129,576l-31-8q5,11 12.5,18t17.5,7q21,0 38.5-17T184,532t-19.5-47.5T118,464T71,484T51,532q0,12 5,27.5T73,599l67,124l51-28Zm184,0L313,576l-31-8q5,11 12.5,18t17.5,7q21,0 38.5-17T368,532t-19.5-47.5T302,464t-47,20t-20,48q0,12 5,27.5T257,599l67,124l51-28Z" />
      <glyph unicode="&#x201d;" glyph-name="gid188" horiz-adv-x="433" d="M242,473l62,119l32,8q-5-11-12.5-18T305,575q-21,0-38.5,17.5T249,636q0,28 19.5,48T316,704q26,0 46-20t20-48q0-11-4.5-26.5T360,569L294,445l-52,28ZM58,473l62,119l32,8q-5-11-12.5-18T121,575q-21,0-38.5,17.5T65,636q0,28 19.5,48T132,704q26,0 46-20t20-48q0-11-4.5-26.5T176,569L110,445L58,473Z" />
      <glyph unicode="&#x201e;" glyph-name="gid186" horiz-adv-x="459" d="M255-110L317,9l32,8Q344,6 336.5-1T318-8Q297-8 279.5,9.5T262,53q0,28 19.5,48T329,121q26,0 46-20t20-48q0-11-4.5-26.5T373-14L307-138l-52,28ZM71-110L133,9l32,8Q160,6 152.5-1T134-8Q113-8 95.5,9.5T78,53q0,28 19.5,48T145,121q26,0 46-20t20-48q0-11-4.5-26.5T189-14L123-138L71-110Z" />
      <glyph unicode="&#x2022;" glyph-name="gid170" horiz-adv-x="330" d="M165,267q-29,0-51,13T79.5,315.5T67,365t12.5,49T114,449.5T165,463t50.5-13.5t34-35.5T262,365t-12.5-49.5t-34-35.5T165,267Z" />
      <glyph unicode="&#x2039;" glyph-name="gid193" horiz-adv-x="274" d="M146,82L37,240L146,399h92L125,240L238,82H146Z" />
      <glyph unicode="&#x203a;" glyph-name="gid194" horiz-adv-x="274" d="M36,82L150,240L36,399h92L237,240L128,82H36Z" />
    </font>
</defs>
</svg>
